<?xml version="1.0" encoding="utf-8"?>
<!-- Generator: Adobe Illustrator 13.0.0, SVG Export Plug-In . SVG Version: 6.00 Build 14948)  -->
<!DOCTYPE svg PUBLIC "-//W3C//DTD SVG 1.1//EN" "http://www.w3.org/Graphics/SVG/1.1/DTD/svg11.dtd">
<svg version="1.1" id="Layer_1" xmlns="http://www.w3.org/2000/svg" xmlns:xlink="http://www.w3.org/1999/xlink" x="0px" y="0px"
	 width="26px" height="21px" viewBox="0 0 26 21" enable-background="new 0 0 26 21" xml:space="preserve">
<g>
	<path fill="#A9A9B1" d="M24.74,1.75h-0.461C24.087,0.752,23.246,0,22.241,0h-10.68c-0.512,0-0.94,0.375-1.048,0.875H4.194
		c-0.618,0-1.152,0.355-1.444,0.875H1.649c-0.273,0-0.524,0.146-0.675,0.392C0.816,2.402,0.795,2.725,0.92,3.005L2.199,5.25H0.84
		C0.377,5.25,0,5.642,0,6.125v1.009c0,0.363,0.22,0.692,0.544,0.819l2.539,0.993c0.162,0.063,0.272,0.228,0.272,0.41v8.58
		c0,0.569,0.352,1.051,0.838,1.233v0.518C4.194,20.411,4.759,21,5.452,21h3.774c0.693,0,1.258-0.589,1.258-1.312V19.17
		c0.486-0.183,0.838-0.664,0.838-1.233V14h2.738c1.056,0,1.971-0.712,2.274-1.769l0.752-2.607h7.234V6.128V6.125h0.419
		c0.695,0,1.26-0.589,1.26-1.313V3.062C26,2.339,25.436,1.75,24.74,1.75z M11.56,0.875h10.679c0.687,0,1.245,0.59,1.245,1.313
		l0.004,3.938h-0.004h-1.021l-2.395-4.163l-0.719,0.45l2.136,3.712h-1.119l-2.393-4.163l-0.722,0.45l2.137,3.712H18.27l-2.395-4.163
		l-0.718,0.45l2.134,3.712h-1.118l-2.395-4.163l-0.719,0.45l2.135,3.712h-1.029l-2.808-4.876c-0.022-0.038-0.035-0.082-0.035-0.127
		C11.322,0.986,11.428,0.875,11.56,0.875z M3.356,4.375h8.822l0.504,0.875H3.356V4.375z M4.194,1.75h6.472l1.008,1.75H3.356V2.625
		C3.356,2.142,3.732,1.75,4.194,1.75z M2.516,2.625V4.12L1.649,2.625H2.516z M9.226,20.125H5.452c-0.23,0-0.419-0.195-0.419-0.437
		V19.25h4.613v0.438C9.646,19.929,9.457,20.125,9.226,20.125z M15.532,11.982c-0.196,0.684-0.789,1.144-1.472,1.144h-2.738v-2.188
		c0-0.569,0.352-1.05,0.839-1.231v0.356c0,1.206,0.939,2.187,2.097,2.187v-0.874c-0.694,0-1.259-0.588-1.259-1.313V9.625h3.211
		L15.532,11.982z M12.58,8.75c-1.155,0-2.096,0.982-2.096,2.188v7c0,0.242-0.188,0.438-0.419,0.438H4.614
		c-0.231,0-0.419-0.195-0.419-0.438v-8.58c0-0.543-0.328-1.039-0.817-1.23L0.84,7.134V6.125h12.347l0.259,0.451
		C13.599,6.838,13.873,7,14.165,7h9.319v1.75H12.58z M25.16,4.813c0,0.241-0.187,0.438-0.42,0.438h-0.419V2.625h0.419
		c0.233,0,0.42,0.196,0.42,0.437V4.813z"/>
	<path fill="#F9BA00" d="M8.807,7.875c-2.081,0-3.775,1.767-3.775,3.938v4.812c0,0.482,0.377,0.875,0.839,0.875h2.936
		c0.462,0,0.838-0.393,0.838-0.875V8.75C9.646,8.267,9.27,7.875,8.807,7.875z M8.807,9.625H6.756c0.53-0.54,1.253-0.875,2.051-0.875
		V9.625z M5.871,13.125v-0.877h2.936v0.877H5.871z M8.807,14v0.874H5.871V14H8.807z M5.905,11.375
		c0.042-0.309,0.129-0.602,0.253-0.874h2.649v0.874H5.905z M5.871,16.625V15.75h2.936v0.875H5.871z"/>
</g>
</svg>
