<?xml version="1.0" encoding="utf-8"?>
<!-- Generator: Adobe Illustrator 13.0.0, SVG Export Plug-In . SVG Version: 6.00 Build 14948)  -->
<!DOCTYPE svg PUBLIC "-//W3C//DTD SVG 1.1//EN" "http://www.w3.org/Graphics/SVG/1.1/DTD/svg11.dtd">
<svg version="1.1" id="Layer_1" xmlns="http://www.w3.org/2000/svg" xmlns:xlink="http://www.w3.org/1999/xlink" x="0px" y="0px"
	 width="24px" height="24px" viewBox="0 0 24 24" enable-background="new 0 0 24 24" xml:space="preserve">
<g>
	<rect x="23.226" y="23.221" fill="#A9A9B1" width="0.774" height="0.779"/>
	<rect y="23.221" fill="#A9A9B1" width="0.774" height="0.779"/>
	<path fill="#F9BA00" d="M12.389,5.159l6.09-2.192L11.614,0v6.851h0.775V5.159z M12.389,1.185L16.359,2.9l-3.971,1.431V1.185z"/>
	<path fill="#A9A9B1" d="M19.714,17.889c-0.414-1.195-1.402-2.072-2.586-2.365l-1.783-6.161C14.949,8,13.767,7.017,12.389,6.859
		V6.851h-0.775v0.008c-0.234,0.027-0.463,0.076-0.683,0.148c-0.664-0.506-1.547-0.688-2.347-0.469C8.022,5.3,6.795,4.494,5.42,4.494
		c-1.922,0-3.485,1.575-3.485,3.511c0,0.141,0.01,0.281,0.027,0.421C0.852,8.601,0,9.568,0,10.736c0,1.292,1.042,2.34,2.323,2.34
		h5.258l-0.227,0.78c-1.537,0-2.914,1.04-3.344,2.528l-1.978,6.836H1.161V24h21.291v-0.779h-0.887L19.714,17.889z M18.982,18.145
		l0.21,0.609c-0.227,0.406-0.399,0.564-0.613,0.564c-0.318,0-0.521-0.359-0.815-0.955c-0.308-0.617-0.689-1.385-1.51-1.385
		c-0.819,0-1.199,0.768-1.505,1.385c-0.297,0.596-0.497,0.955-0.815,0.955c-0.212,0-0.385-0.158-0.611-0.563l0.212-0.611
		c0.404-1.164,1.5-1.947,2.724-1.947C17.482,16.197,18.577,16.98,18.982,18.145z M16.292,15.418c-0.014,0-0.022-0.002-0.034-0.002
		c-1.552,0-2.941,0.994-3.455,2.473l-0.909,2.619l-1.195-4.123c-0.356-1.23-1.358-2.152-2.564-2.436l0.606-2.097
		c0.227,0.25,0.525,0.444,0.934,0.444c0.82,0,1.201-0.769,1.507-1.386c0.295-0.593,0.496-0.955,0.816-0.955
		c0.318,0,0.521,0.361,0.816,0.955c0.305,0.617,0.686,1.386,1.507,1.386c0.41,0,0.711-0.196,0.938-0.446L16.292,15.418z M12,7.615
		c1.197,0,2.265,0.808,2.603,1.966l0.375,1.294c-0.251,0.468-0.432,0.64-0.656,0.64c-0.318,0-0.521-0.36-0.815-0.954
		c-0.305-0.618-0.688-1.386-1.508-1.386c-0.82,0-1.202,0.769-1.509,1.386c-0.292,0.594-0.497,0.954-0.814,0.954
		c-0.224,0-0.402-0.171-0.652-0.637l0.376-1.297C9.734,8.423,10.803,7.615,12,7.615z M2.323,12.296c-0.854,0-1.549-0.7-1.549-1.56
		c0-0.861,0.695-1.561,1.549-1.561s1.549,0.7,1.549,1.561h0.774c0-1.144-0.82-2.098-1.898-2.301C2.726,8.293,2.709,8.15,2.709,8.005
		c0-1.506,1.218-2.731,2.711-2.731c1.172,0,2.207,0.755,2.572,1.879L8.127,7.56l0.39-0.172c0.506-0.224,1.09-0.205,1.585,0.021
		C9.42,7.857,8.894,8.541,8.655,9.362l-0.848,2.934H2.323z M4.753,16.604c0.335-1.158,1.405-1.967,2.601-1.967
		c1.197,0,2.268,0.809,2.603,1.967l0.225,0.773c-0.216,0.33-0.371,0.381-0.504,0.381c-0.32,0-0.521-0.359-0.816-0.955
		c-0.306-0.617-0.688-1.387-1.508-1.387s-1.203,0.77-1.51,1.387c-0.294,0.596-0.496,0.955-0.813,0.955
		c-0.133,0-0.288-0.051-0.5-0.379L4.753,16.604z M10.951,23.221H2.838l1.436-4.961c0.2,0.166,0.443,0.279,0.755,0.279
		c0.82,0,1.2-0.77,1.508-1.387c0.293-0.594,0.497-0.955,0.815-0.955c0.317,0,0.521,0.361,0.816,0.955
		c0.306,0.617,0.686,1.387,1.508,1.387c0.315,0,0.563-0.125,0.757-0.283l1.02,3.52L10.951,23.221z M11.771,23.221l1.234-3.559
		c0.223,0.242,0.521,0.436,0.928,0.436c0.819,0,1.201-0.768,1.507-1.385c0.293-0.594,0.497-0.955,0.813-0.955
		c0.319,0,0.521,0.361,0.818,0.955c0.306,0.617,0.688,1.385,1.507,1.385c0.411,0,0.709-0.193,0.931-0.438l1.235,3.561H11.771z"/>
</g>
</svg>
