<?xml version="1.0" encoding="utf-8"?>
<!-- Generator: Adobe Illustrator 13.0.0, SVG Export Plug-In . SVG Version: 6.00 Build 14948)  -->
<!DOCTYPE svg PUBLIC "-//W3C//DTD SVG 1.1//EN" "http://www.w3.org/Graphics/SVG/1.1/DTD/svg11.dtd">
<svg version="1.1" id="Layer_1" xmlns="http://www.w3.org/2000/svg" xmlns:xlink="http://www.w3.org/1999/xlink" x="0px" y="0px"
	 width="25px" height="25px" viewBox="0 0 25 25" enable-background="new 0 0 25 25" xml:space="preserve">
<g>
	<g>
		<path fill="#A9A9B1" d="M14.589,21.243h-0.945c-0.734,0-1.364-0.507-1.533-1.214H8.06c-0.169,0.707-0.799,1.214-1.532,1.214H5.582
			c-0.733,0-1.363-0.507-1.532-1.214H3.117c-0.198,0-0.36-0.162-0.36-0.362v-6.864c0-0.109,0.006-0.216,0.017-0.325
			c-0.488,0.884-0.964,2.273-0.964,4.327c0,0.197-0.163,0.36-0.362,0.36c-0.198,0-0.361-0.163-0.361-0.36
			c0-4.675,2.305-6.232,2.402-6.296c0.058-0.037,0.125-0.058,0.195-0.058C4.312,9.777,5.234,9.37,6.188,9.37h2.327
			C8.247,9.131,8.029,8.859,7.866,8.558C6.671,6.334,8.513,3.082,8.531,3.049c0.062-0.111,0.181-0.183,0.313-0.183h0.019L8.972,2.89
			c0.167,0.062,0.264,0.241,0.222,0.418c-0.156,0.675-0.066,1.252,0.27,1.715c0.665,0.917,2.103,1.211,2.63,1.292
			c0.922-1.629,2.378-2.389,4.583-2.389c1.835,0,3.491,0.927,4.444,2.482c0.33-0.023,1.924-0.175,2.715-1.153
			c0.407-0.5,0.539-1.162,0.391-1.963c-0.028-0.173,0.063-0.336,0.221-0.399l0.019-0.008l0.117-0.019c0.12,0,0.233,0.06,0.299,0.161
			c0.214,0.303,2.091,3.036,1.139,5.178c-0.401,0.914-1.256,1.58-2.539,1.977c1.064,0.35,1.384,1.112,1.419,1.205
			c0.062,0.169-0.006,0.35-0.158,0.437c-0.458,0.264-0.898,0.4-1.306,0.4c-0.542,0-1.01-0.223-1.395-0.657
			c-0.004,0.004-0.009,0.008-0.015,0.012c-0.05,0.042-0.109,0.07-0.175,0.081l-0.27,3.287c-0.052,1.736-1.729,3.178-3.922,3.419
			v1.304c0,0.2-0.163,0.362-0.36,0.362h-1.183C15.952,20.738,15.321,21.243,14.589,21.243L14.589,21.243z M12.873,20.029
			c0.138,0.295,0.437,0.49,0.768,0.49c0.332,0,0.633-0.195,0.771-0.49H12.873L12.873,20.029z M4.814,20.029
			c0.138,0.295,0.437,0.49,0.766,0.49c0.332,0,0.63-0.195,0.768-0.49H4.814L4.814,20.029z M7.114,20.029
			c-0.031,0.126-0.076,0.247-0.136,0.363c0.138-0.089,0.247-0.213,0.317-0.363H7.114L7.114,20.029z M15.173,20.029
			c-0.03,0.126-0.076,0.247-0.134,0.36c0.137-0.086,0.247-0.212,0.317-0.36H15.173L15.173,20.029z M3.477,19.307H16.94l-0.002-0.902
			c-2.474-0.024-4.455-1.505-4.525-3.392l-0.42-3.61c-0.191-0.202-0.35-0.369-0.469-0.499c-0.07,0.268-0.2,0.581-0.441,0.826
			c-0.272,0.276-0.622,0.416-1.044,0.416c-0.41,0-0.886-0.138-1.417-0.408c-0.15-0.076-0.227-0.251-0.186-0.412
			c0.027-0.093,0.27-0.824,1.434-1.201c-0.042-0.015-0.081-0.027-0.12-0.041L6.188,10.09c-1.495,0-2.71,1.217-2.71,2.712V19.307
			L3.477,19.307z M13.172,15.326c0.281,1.351,1.898,2.355,3.826,2.355s3.545-1.005,3.824-2.355H13.172L13.172,15.326z
			 M13.089,14.604h7.802l0.249-3.06l-0.805-0.152l0.101,0.342c0.047,0.169-0.029,0.346-0.188,0.424
			c-0.639,0.319-1.38,0.484-2.202,0.484c-0.774,0-1.464-0.142-1.95-0.278l0.05,0.159c0.033,0.107,0.017,0.214-0.041,0.307
			c-0.06,0.091-0.157,0.15-0.266,0.161c-0.113,0.011-0.225,0.019-0.336,0.019c-0.884,0-1.794-0.333-2.712-0.991L13.089,14.604
			L13.089,14.604z M16.675,4.649c-2.152,0-3.408,0.746-4.2,2.499C12.09,8,11.928,8.915,11.915,10.3
			c0.068,0.045,0.274,0.274,0.56,0.538c0.678,0.624,1.709,1.368,2.836,1.442l-0.117-0.373c-0.044-0.132-0.007-0.278,0.097-0.373
			c0.065-0.062,0.152-0.097,0.245-0.097c0.047,0,0.095,0.01,0.14,0.029s1.125,0.455,2.368,0.455c0.59,0,1.131-0.095,1.608-0.286
			l-0.177-0.608c-0.033-0.124-0.004-0.253,0.08-0.346c0.07-0.074,0.167-0.118,0.268-0.118l1.588,0.301
			c-0.034-0.589-0.121-1.757-0.29-2.393C20.765,6.239,18.899,4.649,16.675,4.649L16.675,4.649z M22.334,10.729
			c0.189,0.337,0.542,0.774,1.104,0.774c0.186,0,0.391-0.045,0.611-0.136C23.817,11.095,23.323,10.737,22.334,10.729L22.334,10.729z
			 M9.306,11.26c0.282,0.111,0.525,0.167,0.731,0.167c0.225,0,0.398-0.066,0.529-0.2c0.155-0.156,0.237-0.383,0.28-0.577
			C9.953,10.75,9.514,11.04,9.306,11.26L9.306,11.26z M21.632,7.075c0.272,0.744,0.42,1.946,0.488,2.682
			c1.732-0.268,2.823-0.888,3.246-1.845c0.472-1.065,0.063-2.371-0.423-3.361c-0.09,0.435-0.273,0.822-0.548,1.16
			C23.64,6.641,22.39,6.964,21.632,7.075L21.632,7.075z M9.94,9.376c0.089,0,0.167,0.037,0.229,0.095
			c0.299,0.086,0.653,0.161,1.028,0.208c0.043-0.626,0.165-1.909,0.478-2.705C10.885,6.82,9.59,6.424,8.883,5.448
			C8.741,5.252,8.63,5.044,8.552,4.826c-0.35,1.042-0.593,2.385-0.049,3.392c0.276,0.515,0.75,0.904,1.411,1.16
			C9.921,9.378,9.932,9.376,9.94,9.376L9.94,9.376z"/>
		<path fill="#F9BA00" d="M15.878,17.166c-0.197,0-0.359-0.164-0.359-0.364v-0.173l-1.446-0.168
			c-0.199-0.025-0.337-0.202-0.314-0.401c0.021-0.182,0.175-0.317,0.359-0.317l1.805,0.212l0.021,0.002l0.101,0.037l0.021,0.011
			l0.104,0.099l0.015,0.019l0.048,0.138l0.01,0.543C16.24,17.002,16.078,17.166,15.878,17.166L15.878,17.166z"/>
		<path fill="#F9BA00" d="M17.965,17.164c-0.197,0-0.36-0.162-0.36-0.359v-0.494v-0.019l0.023-0.103l0.014-0.021l0.117-0.148
			l0.011-0.009l0.109-0.047l1.768-0.221c0.002,0,0.004,0,0.006,0c0.223,0,0.372,0.132,0.396,0.313
			c0.012,0.095-0.013,0.191-0.072,0.268s-0.146,0.123-0.241,0.134l-1.407,0.171v0.175C18.327,17.002,18.165,17.164,17.965,17.164
			L17.965,17.164z"/>
	</g>
</g>
</svg>
