<?xml version="1.0" encoding="utf-8"?>
<!-- Generator: Adobe Illustrator 13.0.0, SVG Export Plug-In . SVG Version: 6.00 Build 14948)  -->
<!DOCTYPE svg PUBLIC "-//W3C//DTD SVG 1.1//EN" "http://www.w3.org/Graphics/SVG/1.1/DTD/svg11.dtd">
<svg version="1.1" id="Layer_1" xmlns="http://www.w3.org/2000/svg" xmlns:xlink="http://www.w3.org/1999/xlink" x="0px" y="0px"
	 width="25px" height="25px" viewBox="0 0 25 25" enable-background="new 0 0 25 25" xml:space="preserve">
<g>
	<path fill="#A9A9B1" d="M22.364,18.61V7.991c0-0.155-0.075-0.303-0.201-0.393L20.96,6.72l0.948-0.593
		c0.134-0.085,0.223-0.231,0.226-0.393c0.009-0.16-0.063-0.313-0.191-0.41l-0.882-0.667V4.346h0.815
		c0.271,0,0.488-0.218,0.488-0.488V2.881C22.364,1.292,21.071,0,19.483,0H2.833C2.829,0,2.823,0.001,2.821,0.001
		C2.807,0.001,2.796,0,2.787,0C2.015,0,1.304,0.38,0.774,1.068C0.277,1.72,0.001,2.579,0.001,3.486c0,1.632,1.067,2.959,2.381,2.959
		h2.702v7.739c0,0.164,0.081,0.32,0.223,0.409l0.956,0.622l-1.018,0.909c-0.104,0.092-0.161,0.223-0.161,0.363v4.23
		c0,0.026,0.003,0.053,0.007,0.077c-0.004,0.025-0.007,0.052-0.007,0.078c0,1.241,0.321,2.287,0.927,3.023
		C6.598,24.608,7.432,25,8.359,25h13.419c1.776,0,3.223-1.446,3.223-3.223C25.001,20.202,23.863,18.885,22.364,18.61z M4.009,5.469
		c0.144-0.271,0.227-0.583,0.227-0.92c0-1.125-0.73-1.912-1.776-1.912c-0.269,0-0.489,0.218-0.489,0.488s0.221,0.488,0.489,0.488
		c0.501,0,0.8,0.35,0.8,0.936c0,0.597-0.453,0.92-0.877,0.92c-0.76,0-1.404-0.909-1.404-1.983c0-1.383,0.812-2.509,1.809-2.509
		c0.69,0,1.23,0.214,1.603,0.638c0.459,0.52,0.695,1.366,0.695,2.511v1.343H4.009z M6.764,23.277
		c-0.46-0.561-0.704-1.391-0.704-2.403c0-0.026-0.002-0.053-0.007-0.078c0.005-0.024,0.007-0.051,0.007-0.077v-4.011l1.329-1.192
		c0.116-0.099,0.173-0.247,0.164-0.4c-0.013-0.151-0.093-0.288-0.222-0.372L6.06,13.92V4.126c0-1.386-0.312-2.445-0.931-3.149
		h14.354c1.05,0,1.904,0.854,1.904,1.904v0.488h-0.814c-0.271,0-0.489,0.218-0.489,0.488v1.042c0,0.152,0.071,0.296,0.193,0.39
		l0.513,0.385l-0.963,0.601c-0.137,0.086-0.225,0.236-0.23,0.397c-0.004,0.163,0.07,0.316,0.202,0.413l1.589,1.156v10.314H8.974
		c-0.025,0-0.049,0.003-0.073,0.006c-0.046-0.003-0.093-0.006-0.141-0.006c-1.036,0-1.852,0.833-1.852,1.895
		c0,1.128,0.729,1.914,1.772,1.914c0.27,0,0.488-0.218,0.488-0.488s-0.219-0.488-0.488-0.488c-0.497,0-0.795-0.352-0.795-0.938
		c0-0.595,0.452-0.918,0.874-0.918c0.763,0,1.405,0.909,1.405,1.982c0,1.384-0.81,2.51-1.807,2.51
		C7.718,24.023,7.167,23.767,6.764,23.277z M21.778,24.023H10.292c0.025-0.031,0.051-0.062,0.074-0.093
		c0.47-0.61,0.74-1.406,0.772-2.251h7.612c0.27,0,0.488-0.218,0.488-0.488c0-0.27-0.219-0.488-0.488-0.488h-7.703
		c-0.098-0.441-0.28-0.842-0.521-1.172h11.251c1.237,0,2.246,1.009,2.246,2.246S23.016,24.023,21.778,24.023z"/>
	<path fill="#A9A9B1" d="M9.247,4.785c0.13,0,0.256-0.053,0.346-0.143c0.09-0.092,0.143-0.218,0.143-0.346S9.682,4.043,9.592,3.951
		c-0.09-0.09-0.216-0.143-0.346-0.143c-0.126,0-0.253,0.053-0.346,0.143c-0.09,0.092-0.143,0.218-0.143,0.346
		s0.053,0.254,0.143,0.346C8.994,4.732,9.121,4.785,9.247,4.785z"/>
	<path fill="#F9BA00" d="M11.33,4.785h7.047c0.27,0,0.488-0.218,0.488-0.488c0-0.27-0.219-0.488-0.488-0.488H11.33
		c-0.27,0-0.488,0.218-0.488,0.488C10.841,4.567,11.06,4.785,11.33,4.785z"/>
	<path fill="#F9BA00" d="M9.247,7.52h9.13c0.27,0,0.488-0.218,0.488-0.488s-0.219-0.488-0.488-0.488h-9.13
		c-0.271,0-0.488,0.218-0.488,0.488S8.976,7.52,9.247,7.52z"/>
	<path fill="#F9BA00" d="M9.247,10.254h9.13c0.27,0,0.488-0.218,0.488-0.488s-0.219-0.488-0.488-0.488h-9.13
		c-0.271,0-0.488,0.218-0.488,0.488S8.976,10.254,9.247,10.254z"/>
	<path fill="#F9BA00" d="M9.247,12.988h9.13c0.27,0,0.488-0.219,0.488-0.488s-0.219-0.488-0.488-0.488h-9.13
		c-0.271,0-0.488,0.219-0.488,0.488S8.976,12.988,9.247,12.988z"/>
	<path fill="#F9BA00" d="M9.247,15.723h9.13c0.27,0,0.488-0.218,0.488-0.488c0-0.27-0.219-0.488-0.488-0.488h-9.13
		c-0.271,0-0.488,0.219-0.488,0.488C8.758,15.505,8.976,15.723,9.247,15.723z"/>
	<path fill="#A9A9B1" d="M20.647,20.703c-0.127,0-0.252,0.053-0.346,0.143c-0.089,0.09-0.142,0.217-0.142,0.346
		s0.053,0.256,0.142,0.346c0.094,0.09,0.219,0.143,0.346,0.143c0.13,0,0.257-0.053,0.347-0.143s0.143-0.217,0.143-0.346
		s-0.053-0.256-0.143-0.346S20.777,20.703,20.647,20.703z"/>
</g>
</svg>
