<?xml version="1.0" encoding="utf-8"?>
<!-- Generator: Adobe Illustrator 13.0.0, SVG Export Plug-In . SVG Version: 6.00 Build 14948)  -->
<!DOCTYPE svg PUBLIC "-//W3C//DTD SVG 1.1//EN" "http://www.w3.org/Graphics/SVG/1.1/DTD/svg11.dtd">
<svg version="1.1" id="Layer_1" xmlns="http://www.w3.org/2000/svg" xmlns:xlink="http://www.w3.org/1999/xlink" x="0px" y="0px"
	 width="25px" height="25px" viewBox="0 0 25 25" enable-background="new 0 0 25 25" xml:space="preserve">
<g>
	<g>
		<g>
			<path fill="#F9BA00" d="M5.784,9.066C5.303,8.711,4.611,8.79,4.233,9.255c-0.128,0.164-0.1,0.39,0.06,0.514
				c0.072,0.051,0.152,0.076,0.241,0.076c0.108,0,0.225-0.049,0.291-0.144C4.946,9.555,5.169,9.53,5.32,9.646
				c0.16,0.124,0.404,0.098,0.532-0.058C5.98,9.425,5.953,9.199,5.784,9.066z"/>
		</g>
	</g>
	<g>
		<g>
			<path fill="#F9BA00" d="M9.676,8.613C9.194,8.249,8.504,8.328,8.127,8.792c-0.129,0.164-0.102,0.391,0.06,0.515
				c0.071,0.051,0.151,0.075,0.239,0.075c0.109,0,0.226-0.049,0.292-0.134C8.84,9.102,9.062,9.076,9.214,9.185
				c0.159,0.124,0.403,0.097,0.53-0.059C9.873,8.963,9.846,8.737,9.676,8.613z"/>
		</g>
	</g>
	<g>
		<g>
			<path fill="#A9A9B1" d="M9.241,11.425l-0.047-0.34c-0.021-0.147-0.088-0.275-0.21-0.369c-0.124-0.094-0.274-0.137-0.427-0.117
				l-2.176,0.263c-0.153,0.012-0.295,0.085-0.383,0.204c-0.097,0.119-0.142,0.265-0.12,0.412l0.047,0.34
				c0.106,0.883,0.943,1.514,1.855,1.41C8.704,13.112,9.35,12.308,9.241,11.425z M7.695,12.499
				c-0.502,0.055-0.959-0.289-1.016-0.773l-0.023-0.158l1.808-0.217l0.022,0.167C8.553,11.994,8.196,12.434,7.695,12.499z"/>
		</g>
	</g>
	<g>
		<g>
			<path fill="#A9A9B1" d="M11.978,1.688c-0.366-0.765-0.998-1.344-1.827-1.661C9.97-0.044,9.766,0.029,9.672,0.199
				C9.265,0.972,8.279,1.514,7.038,1.661L4.843,1.925c-0.206,0.024-0.354,0.203-0.329,0.4s0.211,0.343,0.425,0.318L7.125,2.39
				c1.336-0.163,2.442-0.729,3.03-1.554c1.236,0.636,1.538,1.974,1.407,2.977c-0.144,1.047-0.708,1.83-1.385,1.907l-7.38,0.877
				c-0.609,0.072-1.044,0.612-0.969,1.21l0.086,0.711l-0.577,0.07L0.77,4.054C0.731,3.812,0.803,3.571,0.955,3.389
				c0.153-0.191,0.378-0.313,0.627-0.342l1.842-0.218c0.205-0.024,0.354-0.212,0.329-0.411C3.729,2.22,3.534,2.076,3.328,2.101
				L1.487,2.318C0.565,2.424-0.104,3.247,0.016,4.146l0.598,4.676c-0.391,0.267-0.603,0.724-0.546,1.189
				c0.079,0.634,0.637,1.106,1.305,1.106c0.052,0,0.104-0.002,0.158-0.006l0.706-0.08l0.072,0.542
				c0.139,1.145,0.739,2.166,1.679,2.875c0.799,0.596,1.747,0.912,2.745,0.912c0.181,0,0.363-0.008,0.554-0.029
				c0.566-0.07,1.113-0.24,1.605-0.508c0.481-0.252,0.908-0.592,1.264-1.002c0.141-0.152,0.118-0.389-0.049-0.516
				c-0.156-0.127-0.392-0.113-0.533,0.047c-0.288,0.34-0.642,0.617-1.044,0.832c-0.419,0.221-0.861,0.363-1.338,0.416
				c-0.984,0.119-1.951-0.145-2.733-0.732c-0.781-0.588-1.281-1.437-1.404-2.387l-0.109-0.907c-0.017-0.097-0.068-0.179-0.146-0.244
				c-0.079-0.056-0.179-0.082-0.279-0.074l-1.083,0.127c-0.025,0.002-0.049,0.002-0.063,0.002c-0.287,0-0.519-0.199-0.55-0.467
				c-0.028-0.231,0.106-0.467,0.335-0.56c0.001,0,0.001,0,0.002,0c0.046-0.012,0.095-0.027,0.144-0.031l1.084-0.126
				c0.206-0.025,0.355-0.212,0.33-0.411L2.574,7.714C2.55,7.522,2.694,7.35,2.894,7.325l7.002-0.83l0.525,4.12
				c0.063,0.537,0.009,1.062-0.169,1.572c-0.069,0.193,0.044,0.405,0.234,0.464c0.044,0.018,0.088,0.022,0.124,0.022
				c0.165,0,0.304-0.097,0.356-0.248c0.22-0.613,0.289-1.26,0.2-1.902l-0.529-4.155c0.857-0.294,1.511-1.236,1.67-2.461
				C12.419,3.13,12.299,2.345,11.978,1.688z"/>
		</g>
	</g>
	<g>
		<g>
			<path fill="#F9BA00" d="M20.771,18.896c-0.377-0.465-1.069-0.553-1.551-0.189c-0.169,0.125-0.195,0.359-0.068,0.514
				c0.128,0.164,0.372,0.191,0.532,0.068c0.151-0.119,0.374-0.092,0.495,0.055c0.065,0.094,0.183,0.143,0.291,0.143
				c0.089,0,0.169-0.025,0.241-0.076C20.87,19.286,20.898,19.05,20.771,18.896z"/>
		</g>
	</g>
	<g>
		<g>
			<path fill="#F9BA00" d="M16.877,18.433c-0.377-0.465-1.068-0.543-1.549-0.188c-0.17,0.123-0.197,0.357-0.068,0.514
				c0.127,0.162,0.371,0.189,0.53,0.066c0.152-0.117,0.374-0.092,0.496,0.055c0.066,0.094,0.183,0.143,0.292,0.143
				c0.088,0,0.168-0.025,0.239-0.076C16.979,18.823,17.006,18.587,16.877,18.433z"/>
		</g>
	</g>
	<g>
		<g>
			<path fill="#A9A9B1" d="M18.622,20.501l-2.176-0.262c-0.152-0.02-0.303,0.023-0.427,0.117c-0.273,0.201-0.206,0.475-0.257,0.709
				c-0.181,1.428,1.524,2.344,2.686,1.467c0.702-0.529,0.629-1.248,0.677-1.416C19.168,20.81,18.942,20.534,18.622,20.501z
				 M17.985,21.952c-0.196,0.146-0.431,0.213-0.677,0.186c-0.503-0.063-0.857-0.502-0.791-0.988l0.023-0.158l1.807,0.207
				C18.324,21.284,18.362,21.675,17.985,21.952z"/>
		</g>
	</g>
	<g>
		<g>
			<path fill="#A9A9B1" d="M24.64,12.574c-0.278-0.344-0.681-0.563-1.123-0.615l-5.209-0.624c-0.195-0.023-0.374-0.124-0.493-0.275
				c-0.357-0.485-0.845-0.857-1.418-1.09c-0.196-0.075-0.411,0.017-0.499,0.206c-0.078,0.182,0.018,0.397,0.213,0.474
				c0.436,0.173,0.813,0.463,1.092,0.834c0.235,0.327,0.606,0.533,1.011,0.58l5.209,0.616c0.509,0.066,0.88,0.513,0.813,1.013
				l-0.568,4.527l-0.576-0.063l0.086-0.719c0.074-0.59-0.36-1.129-0.971-1.203l-7.379-0.875c-0.698-0.078-1.309-0.422-1.723-0.959
				c-0.423-0.539-0.596-1.211-0.478-1.875c0.18-1.073,1.09-1.911,2.208-2.047c0.214-0.024,0.354-0.202,0.329-0.401
				c-0.025-0.208-0.209-0.353-0.415-0.328c-1.459,0.17-2.643,1.264-2.874,2.657c-0.139,0.871,0.074,1.729,0.623,2.434
				c0.463,0.596,1.117,1.008,1.867,1.18l-0.527,4.143c-0.073,0.547-0.039,1.1,0.11,1.635c0.046,0.156,0.2,0.271,0.371,0.271
				c0.029,0,0.06-0.004,0.099-0.018c0.202-0.051,0.315-0.25,0.263-0.445c-0.123-0.441-0.153-0.9-0.097-1.359l0.525-4.111l7.002,0.83
				c0.199,0.023,0.344,0.195,0.319,0.389l-0.143,1.076c-0.008,0.096,0.02,0.193,0.078,0.27c0.065,0.074,0.151,0.123,0.251,0.131
				l1.085,0.135c0.047,0.004,0.094,0.012,0.131,0.031c0.241,0.092,0.378,0.316,0.35,0.561c-0.031,0.27-0.272,0.469-0.541,0.469
				c-0.023,0-0.047-0.002-0.071-0.004l-1.084-0.127c-0.101-0.016-0.201,0.01-0.279,0.074c-0.078,0.057-0.13,0.148-0.146,0.244
				l-0.11,0.908c-0.122,0.949-0.622,1.799-1.403,2.387c-0.782,0.588-1.749,0.852-2.733,0.732c-0.512-0.066-1.005-0.221-1.442-0.48
				c-0.431-0.246-0.792-0.566-1.091-0.957c-0.125-0.164-0.358-0.195-0.529-0.076c-0.173,0.121-0.204,0.346-0.08,0.512
				c0.355,0.467,0.794,0.857,1.314,1.152c0.533,0.311,1.117,0.506,1.733,0.578c0.19,0.023,0.373,0.029,0.554,0.029
				c0.998,0,1.946-0.316,2.745-0.92c0.939-0.697,1.54-1.721,1.679-2.865l0.072-0.551c0.677,0.084,0.729,0.094,0.873,0.094
				c0.659,0,1.217-0.473,1.296-1.105c0.057-0.479-0.154-0.926-0.537-1.189l0.59-4.686C25.043,13.349,24.919,12.917,24.64,12.574z"/>
		</g>
	</g>
	<g>
		<g>
			<path fill="#F9BA00" d="M19.276,3.074c-0.207,0-0.379,0.156-0.379,0.366V4.34c0,0.2,0.172,0.366,0.379,0.366
				s0.38-0.166,0.38-0.366V3.44C19.656,3.23,19.483,3.074,19.276,3.074z"/>
		</g>
	</g>
	<g>
		<g>
			<path fill="#F9BA00" d="M19.276,5.831c-0.207,0-0.379,0.157-0.379,0.366v0.89c0,0.209,0.172,0.366,0.379,0.366
				s0.38-0.157,0.38-0.366v-0.89C19.656,5.988,19.483,5.831,19.276,5.831z"/>
		</g>
	</g>
	<g>
		<g>
			<path fill="#F9BA00" d="M21.169,4.902h-0.932c-0.206,0-0.379,0.158-0.379,0.366c0,0.199,0.173,0.366,0.379,0.366h0.932
				c0.206,0,0.379-0.167,0.379-0.366C21.548,5.061,21.375,4.902,21.169,4.902z"/>
		</g>
	</g>
	<g>
		<g>
			<path fill="#F9BA00" d="M18.314,4.902h-0.932c-0.206,0-0.379,0.158-0.379,0.366c0,0.199,0.173,0.366,0.379,0.366h0.932
				c0.207,0,0.379-0.167,0.379-0.366C18.693,5.061,18.521,4.902,18.314,4.902z"/>
		</g>
	</g>
	<g>
		<g>
			<path fill="#F9BA00" d="M5.728,17.548c-0.207,0-0.38,0.156-0.38,0.365v0.891c0,0.209,0.173,0.365,0.38,0.365
				s0.379-0.156,0.379-0.365v-0.891C6.106,17.704,5.935,17.548,5.728,17.548z"/>
		</g>
	</g>
	<g>
		<g>
			<path fill="#F9BA00" d="M5.728,20.296c-0.207,0-0.38,0.166-0.38,0.365v0.898c0,0.201,0.173,0.367,0.38,0.367
				s0.379-0.166,0.379-0.367v-0.898C6.106,20.462,5.935,20.296,5.728,20.296z"/>
		</g>
	</g>
	<g>
		<g>
			<path fill="#F9BA00" d="M7.62,19.366H6.689c-0.207,0-0.379,0.168-0.379,0.367c0,0.207,0.172,0.365,0.379,0.365H7.62
				c0.207,0,0.379-0.158,0.379-0.365C7.999,19.534,7.827,19.366,7.62,19.366z"/>
		</g>
	</g>
	<g>
		<g>
			<path fill="#F9BA00" d="M4.767,19.366H3.835c-0.206,0-0.379,0.168-0.379,0.367c0,0.207,0.173,0.365,0.379,0.365h0.932
				c0.206,0,0.379-0.158,0.379-0.365C5.146,19.534,4.973,19.366,4.767,19.366z"/>
		</g>
	</g>
</g>
</svg>
