<?xml version="1.0" encoding="utf-8"?>
<!-- Generator: Adobe Illustrator 13.0.0, SVG Export Plug-In . SVG Version: 6.00 Build 14948)  -->
<!DOCTYPE svg PUBLIC "-//W3C//DTD SVG 1.1//EN" "http://www.w3.org/Graphics/SVG/1.1/DTD/svg11.dtd">
<svg version="1.1" id="Layer_1" xmlns="http://www.w3.org/2000/svg" xmlns:xlink="http://www.w3.org/1999/xlink" x="0px" y="0px"
	 width="25px" height="25px" viewBox="0 0 25 25" enable-background="new 0 0 25 25" xml:space="preserve">
<g>
	<g>
		<g>
			<path fill="#F9BA00" d="M5.831,12.259c-0.157-0.152-0.438-0.152-0.605,0l-1.209,1.178c-0.171,0.166-0.171,0.43,0,0.598
				l1.512,1.469l-5.149,5.006c-0.246,0.24-0.377,0.555-0.377,0.883c0,0.338,0.131,0.652,0.377,0.883l2.428,2.359
				c0.251,0.244,0.579,0.367,0.907,0.367c0.329,0,0.656-0.123,0.907-0.367l5.15-5.006l1.521,1.469c0.161,0.166,0.434,0.166,0.604,0
				l1.209-1.176c0.17-0.166,0.17-0.422,0-0.588L5.831,12.259z M4.016,24.046c-0.168,0.154-0.447,0.154-0.605,0l-2.428-2.359
				c-0.079-0.078-0.126-0.18-0.126-0.295c0-0.105,0.047-0.217,0.126-0.293l1.43-1.393l2.278,3.686L4.016,24.046z M5.317,22.782
				l-2.278-3.684l1.227-1.184l2.52,3.43L5.317,22.782z M11.593,20.216l-1.521-1.471c-0.16-0.166-0.434-0.166-0.604,0l-2.063,2.008
				l-2.529-3.439l1.258-1.223l2.126,2.066c0.16,0.156,0.435,0.156,0.604,0c0.171-0.166,0.171-0.43,0-0.596l-3.939-3.822l0.604-0.598
				l6.671,6.486L11.593,20.216z"/>
			<path fill="#A9A9B1" d="M23.986,3.176c-0.013-1.007-0.234-2.024-0.743-2.954c-0.068-0.118-0.188-0.195-0.32-0.217
				c-0.13-0.021-0.271,0.024-0.369,0.119l-4.602,4.474c-0.155,0.159-0.581,0.475-0.906,0.475c-0.649,0-2,0-2.73,0.711L10.677,9.32
				h-0.001l0,0l-1.209,1.176l0,0l0,0l-1.814,1.763c-0.17,0.168-0.17,0.432,0,0.59c0.161,0.166,0.436,0.166,0.605,0l0.302-0.295
				l0.303,0.295c0.081,0.086,0.196,0.121,0.303,0.121c0.105,0,0.222-0.035,0.302-0.121c0.171-0.158,0.171-0.422,0-0.59l-0.302-0.293
				l0.605-0.587l0.301,0.293c0.091,0.079,0.197,0.122,0.304,0.122c0.115,0,0.222-0.043,0.301-0.122c0.172-0.165,0.172-0.422,0-0.588
				l-0.301-0.293l0.604-0.589l0.312,0.294c0.08,0.079,0.187,0.122,0.302,0.122c0.106,0,0.213-0.043,0.303-0.122
				c0.162-0.165,0.162-0.432,0-0.588l-0.303-0.294l0.605-0.597L12.5,9.32c0.08,0.078,0.188,0.122,0.303,0.122
				c0.106,0,0.221-0.044,0.302-0.122c0.17-0.166,0.17-0.432,0-0.597l-0.302-0.295l0.604-0.588l0.304,0.295
				c0.08,0.087,0.194,0.122,0.301,0.122s0.222-0.035,0.304-0.122c0.17-0.157,0.17-0.423,0-0.589l-0.304-0.294l0.908-0.881
				c0.479-0.467,1.595-0.467,2.126-0.467c0.758,0,1.436-0.637,1.511-0.71l4.172-4.063c0.266,0.631,0.392,1.292,0.417,1.964
				L10.676,15.21c-0.16,0.164-0.16,0.422,0,0.588c0.091,0.078,0.197,0.121,0.304,0.121c0.115,0,0.222-0.043,0.312-0.121L23.08,4.326
				c-0.249,1.799-1.136,3.465-2.095,4.397l-8.485,8.25c-0.17,0.164-0.17,0.432,0,0.588c0.08,0.088,0.188,0.121,0.303,0.121
				c0.106,0,0.221-0.033,0.302-0.121l8.485-8.242c1.259-1.234,2.41-3.605,2.408-6.004C24.003,3.269,24.001,3.223,23.986,3.176z"/>
		</g>
	</g>
</g>
</svg>
