<?xml version="1.0" encoding="utf-8"?>
<!-- Generator: Adobe Illustrator 13.0.0, SVG Export Plug-In . SVG Version: 6.00 Build 14948)  -->
<!DOCTYPE svg PUBLIC "-//W3C//DTD SVG 1.1//EN" "http://www.w3.org/Graphics/SVG/1.1/DTD/svg11.dtd">
<svg version="1.1" id="Layer_1" xmlns="http://www.w3.org/2000/svg" xmlns:xlink="http://www.w3.org/1999/xlink" x="0px" y="0px"
	 width="25px" height="25px" viewBox="0 0 25 25" enable-background="new 0 0 25 25" xml:space="preserve">
<g>
	<g>
		<g>
			<path fill="#A9A9B1" d="M24.181,21.986c0.009-0.068,0.015-0.141,0.015-0.213c0-0.889-0.724-1.611-1.613-1.611
				c-0.021,0-0.039,0.006-0.06,0.006c0.035-0.133,0.06-0.268,0.06-0.41c0-0.588-0.323-1.119-0.821-1.4
				c0.01-0.07,0.015-0.141,0.015-0.213c0-0.889-0.724-1.611-1.612-1.611c-0.021,0-0.039,0.004-0.06,0.006
				c0.035-0.133,0.06-0.268,0.06-0.41c0-0.588-0.323-1.119-0.821-1.4c0.01-0.07,0.015-0.141,0.015-0.213
				c0-0.889-0.724-1.612-1.613-1.612c-0.526,0-0.99,0.256-1.284,0.647l0.474-3.415l0.004-0.057c0-1.025-0.642-1.9-1.544-2.252
				c0.207-0.271,0.334-0.605,0.334-0.973c0-0.588-0.323-1.119-0.82-1.4c0.01-0.07,0.015-0.141,0.015-0.213
				c0-0.889-0.724-1.612-1.613-1.612c-0.02,0-0.039,0.005-0.059,0.006c0.035-0.131,0.059-0.268,0.059-0.409
				c0-0.588-0.323-1.119-0.82-1.4c0.01-0.07,0.014-0.141,0.014-0.213C12.501,0.724,11.779,0,10.889,0S9.276,0.724,9.276,1.613
				c0,0.072,0.005,0.143,0.015,0.213c-0.497,0.281-0.821,0.813-0.821,1.4c0,0.142,0.024,0.278,0.06,0.409
				c-0.02-0.001-0.039-0.006-0.06-0.006c-0.02,0-0.039,0.005-0.059,0.006c0.035-0.131,0.059-0.268,0.059-0.409
				c0-0.588-0.323-1.119-0.82-1.4c0.01-0.07,0.015-0.141,0.015-0.213C7.664,0.724,6.94,0,6.05,0S4.438,0.724,4.438,1.613
				c0,0.072,0.004,0.143,0.014,0.213c-0.497,0.281-0.82,0.813-0.82,1.4c0,0.142,0.023,0.278,0.06,0.409
				c-0.021-0.001-0.04-0.006-0.06-0.006c-0.89,0-1.613,0.724-1.613,1.612c0,0.072,0.005,0.143,0.015,0.213
				c-0.497,0.281-0.821,0.813-0.821,1.4c0,0.367,0.128,0.701,0.335,0.973C0.644,8.179,0.001,9.054,0.001,10.08L2.07,25h12.798
				l0.53-3.813c0.226,0.119,0.476,0.184,0.732,0.184c0.02,0,0.038-0.006,0.059-0.006c-0.035,0.131-0.059,0.268-0.059,0.408
				c0,0.072,0.005,0.145,0.014,0.213c-0.497,0.281-0.82,0.814-0.82,1.4c0,0.891,0.724,1.613,1.612,1.613
				c0.285,0,0.562-0.076,0.807-0.221C17.988,24.924,18.266,25,18.55,25c0.89,0,1.613-0.723,1.613-1.613
				c0-0.586-0.323-1.119-0.821-1.4c0.01-0.068,0.015-0.141,0.015-0.213c0-0.141-0.024-0.277-0.06-0.408
				c0.021,0,0.039,0.006,0.06,0.006c0.284,0,0.562-0.076,0.807-0.221c0.244,0.145,0.521,0.221,0.806,0.221
				c0.021,0,0.039-0.006,0.06-0.006c-0.035,0.131-0.06,0.268-0.06,0.408c0,0.072,0.005,0.145,0.015,0.213
				c-0.497,0.281-0.82,0.814-0.82,1.4c0,0.891,0.723,1.613,1.612,1.613c0.284,0,0.562-0.076,0.807-0.221
				C22.827,24.924,23.104,25,23.389,25c0.89,0,1.612-0.723,1.612-1.613C25.001,22.801,24.678,22.268,24.181,21.986z M16.728,15.355
				l0.438-0.119l-0.169-0.42c-0.039-0.098-0.06-0.199-0.06-0.301c0-0.443,0.362-0.805,0.807-0.805c0.445,0,0.807,0.361,0.807,0.805
				c0,0.102-0.021,0.203-0.06,0.301l-0.169,0.42l0.438,0.119c0.352,0.096,0.598,0.414,0.598,0.773c0,0.445-0.362,0.807-0.807,0.807
				c-0.251,0-0.43-0.113-0.537-0.209l-0.27-0.244l-0.27,0.244c-0.107,0.096-0.286,0.209-0.537,0.209
				c-0.444,0-0.806-0.361-0.806-0.807C16.131,15.77,16.376,15.451,16.728,15.355z M18.564,18.357
				c-0.498,0.281-0.821,0.813-0.821,1.4c0,0.143,0.024,0.277,0.06,0.41c-0.021,0-0.039-0.006-0.06-0.006
				c-0.02,0-0.039,0.006-0.06,0.006c0.035-0.133,0.06-0.268,0.06-0.41c0-0.588-0.323-1.119-0.821-1.4
				c0.01-0.07,0.015-0.141,0.015-0.213c0-0.141-0.023-0.277-0.059-0.408c0.021,0,0.038,0.006,0.059,0.006
				c0.285,0,0.562-0.076,0.807-0.221c0.245,0.145,0.522,0.221,0.807,0.221c0.021,0,0.039-0.006,0.06-0.006
				c-0.035,0.131-0.06,0.268-0.06,0.408C18.55,18.217,18.555,18.287,18.564,18.357z M16.131,10.054l-0.901,6.489
				c-0.481,0.027-0.903,0.266-1.18,0.625c0.038-0.207,0.064-0.42,0.064-0.635c0-1.119-0.533-2.139-1.405-2.92l0.195-3.534
				c0-0.889,0.723-1.611,1.613-1.611C15.398,8.468,16.116,9.177,16.131,10.054z M13.726,18.357
				c-0.071,0.041-0.138,0.088-0.202,0.139c0.068-0.107,0.132-0.217,0.189-0.33C13.714,18.23,13.717,18.295,13.726,18.357z
				 M12.501,8.744c-0.07-0.107-0.154-0.205-0.241-0.301c0.079,0.012,0.159,0.025,0.241,0.025c0.08,0,0.159-0.008,0.237-0.02
				C12.654,8.541,12.572,8.638,12.501,8.744z M13.308,4.435c0.445,0,0.807,0.362,0.807,0.807c0,0.101-0.02,0.201-0.06,0.299
				l-0.169,0.422l0.438,0.118c0.351,0.095,0.597,0.413,0.597,0.774c0,0.445-0.362,0.807-0.807,0.807c-0.25,0-0.43-0.115-0.537-0.211
				l-0.27-0.242l-0.27,0.242c-0.106,0.096-0.286,0.211-0.537,0.211c-0.444,0-0.806-0.361-0.806-0.807
				c0-0.361,0.245-0.68,0.597-0.774l0.438-0.118l-0.17-0.422c-0.039-0.098-0.06-0.198-0.06-0.299
				C12.501,4.797,12.864,4.435,13.308,4.435z M10.024,4.833c0.02,0.001,0.039,0.006,0.059,0.006c0.284,0,0.562-0.076,0.807-0.22
				c0.244,0.144,0.522,0.22,0.807,0.22c0.02,0,0.039-0.005,0.059-0.006c-0.035,0.132-0.059,0.267-0.059,0.409
				c0,0.072,0.005,0.143,0.015,0.213c-0.498,0.281-0.821,0.813-0.821,1.4c0,0.336,0.104,0.65,0.282,0.908
				c-0.165-0.049-0.336-0.078-0.513-0.09c0.143-0.242,0.23-0.52,0.23-0.818c0-0.588-0.323-1.119-0.821-1.4
				c0.01-0.07,0.015-0.141,0.015-0.213C10.083,5.099,10.059,4.964,10.024,4.833z M10.486,8.468c0.888,0,1.61,0.721,1.612,1.607
				l-0.164,2.963c-0.857-0.528-1.911-0.862-3.062-0.926V10.08C8.873,9.191,9.596,8.468,10.486,8.468z M9.874,2.452l0.438-0.119
				l-0.169-0.42c-0.039-0.098-0.06-0.199-0.06-0.299c0-0.445,0.362-0.807,0.807-0.807s0.807,0.362,0.807,0.807
				c0,0.101-0.021,0.201-0.06,0.299l-0.169,0.42l0.438,0.119c0.352,0.096,0.597,0.414,0.597,0.774c0,0.444-0.361,0.806-0.806,0.806
				c-0.251,0-0.431-0.114-0.537-0.21l-0.27-0.243l-0.27,0.243c-0.107,0.096-0.287,0.21-0.537,0.21c-0.444,0-0.807-0.361-0.807-0.806
				C9.276,2.866,9.522,2.547,9.874,2.452z M8.469,4.435c0.445,0,0.807,0.362,0.807,0.807c0,0.101-0.02,0.201-0.059,0.299
				l-0.17,0.422l0.438,0.118c0.352,0.095,0.597,0.413,0.597,0.774c0,0.445-0.361,0.807-0.807,0.807c-0.25,0-0.43-0.115-0.536-0.211
				L8.469,7.208L8.2,7.451C8.093,7.546,7.914,7.662,7.664,7.662c-0.445,0-0.807-0.361-0.807-0.807c0-0.361,0.246-0.68,0.598-0.774
				l0.438-0.118L7.723,5.541c-0.04-0.098-0.06-0.198-0.06-0.299C7.664,4.797,8.025,4.435,8.469,4.435z M8.772,8.382
				c-0.111,0.111-0.215,0.23-0.303,0.361c-0.087-0.131-0.19-0.25-0.301-0.361c0.104-0.035,0.205-0.078,0.301-0.135
				C8.565,8.304,8.667,8.347,8.772,8.382z M5.185,4.833c0.02,0.001,0.039,0.006,0.059,0.006c0.284,0,0.563-0.076,0.807-0.22
				c0.244,0.144,0.522,0.22,0.807,0.22c0.02,0,0.039-0.005,0.059-0.006C6.881,4.964,6.857,5.099,6.857,5.242
				c0,0.072,0.005,0.143,0.015,0.213C6.374,5.736,6.05,6.267,6.05,6.855c0,0.299,0.088,0.576,0.23,0.816
				C6.104,7.685,5.932,7.714,5.768,7.763C5.946,7.505,6.05,7.191,6.05,6.855c0-0.588-0.323-1.119-0.82-1.4
				c0.009-0.07,0.014-0.141,0.014-0.213C5.244,5.099,5.22,4.964,5.185,4.833z M6.454,8.468c0.89,0,1.613,0.723,1.613,1.611v2.033
				c-1.115,0.063-2.14,0.379-2.982,0.879L4.84,10.08C4.84,9.191,5.564,8.468,6.454,8.468z M5.035,2.452l0.438-0.119l-0.169-0.42
				c-0.039-0.098-0.06-0.199-0.06-0.299c0-0.445,0.362-0.807,0.807-0.807s0.807,0.362,0.807,0.807c0,0.101-0.021,0.201-0.06,0.299
				l-0.169,0.42l0.438,0.119c0.352,0.096,0.598,0.414,0.598,0.774c0,0.444-0.362,0.806-0.807,0.806c-0.25,0-0.43-0.114-0.536-0.21
				L6.05,3.579l-0.27,0.243c-0.106,0.096-0.286,0.21-0.537,0.21c-0.444,0-0.806-0.361-0.806-0.806
				C4.438,2.866,4.683,2.547,5.035,2.452z M2.616,6.081l0.438-0.118l-0.17-0.422C2.845,5.443,2.825,5.342,2.825,5.242
				c0-0.444,0.361-0.807,0.807-0.807c0.444,0,0.807,0.362,0.807,0.807c0,0.101-0.021,0.201-0.06,0.299L4.209,5.962l0.438,0.118
				c0.352,0.095,0.597,0.413,0.597,0.774c0,0.445-0.361,0.807-0.806,0.807c-0.251,0-0.431-0.115-0.537-0.211l-0.27-0.242
				L3.361,7.451C3.254,7.546,3.075,7.662,2.825,7.662c-0.444,0-0.807-0.361-0.807-0.807C2.018,6.494,2.264,6.175,2.616,6.081z
				 M4.679,8.443c-0.088,0.096-0.17,0.193-0.241,0.301C4.367,8.638,4.287,8.541,4.201,8.449c0.078,0.012,0.157,0.02,0.237,0.02
				C4.52,8.468,4.6,8.455,4.679,8.443z M2.773,24.193L0.808,10.054c0.015-0.877,0.732-1.586,1.613-1.586
				c0.89,0,1.613,0.723,1.613,1.611h0.001v0.035l0.285,3.42c-0.926,0.791-1.496,1.842-1.496,2.998c0,1.365,0.79,2.588,2.029,3.4
				l0.354,4.26H2.773z M8.067,24.193H6.018l-0.316-3.799c0.708,0.314,1.511,0.51,2.365,0.557V24.193z M3.631,16.533
				c0-2.002,2.17-3.629,4.838-3.629c2.669,0,4.838,1.627,4.838,3.629c0,2-2.169,3.629-4.838,3.629
				C5.801,20.162,3.631,18.533,3.631,16.533z M11.314,24.193H8.873v-3.242c0.978-0.053,1.885-0.303,2.662-0.699L11.314,24.193z
				 M14.166,24.193h-2.044l0.245-4.406l0.004-0.057c0.243-0.184,0.464-0.383,0.663-0.598c-0.083,0.193-0.128,0.406-0.128,0.625
				c0,0.891,0.723,1.613,1.613,1.613c0.014,0,0.027-0.002,0.041-0.002L14.166,24.193z M16.131,20.564
				c-0.251,0-0.431-0.113-0.537-0.209l-0.27-0.244l-0.27,0.244c-0.107,0.096-0.286,0.209-0.537,0.209
				c-0.444,0-0.807-0.361-0.807-0.807c0-0.359,0.246-0.678,0.598-0.773l0.438-0.119l-0.169-0.42c-0.039-0.1-0.06-0.199-0.06-0.301
				c0-0.443,0.361-0.805,0.807-0.805c0.444,0,0.807,0.361,0.807,0.805c0,0.102-0.021,0.201-0.06,0.301l-0.17,0.42l0.438,0.119
				c0.352,0.096,0.597,0.414,0.597,0.773C16.937,20.203,16.575,20.564,16.131,20.564z M19.356,23.387
				c0,0.445-0.362,0.807-0.807,0.807c-0.251,0-0.43-0.113-0.537-0.209l-0.27-0.244l-0.27,0.244
				c-0.107,0.096-0.286,0.209-0.537,0.209c-0.444,0-0.806-0.361-0.806-0.807c0-0.359,0.245-0.678,0.597-0.773l0.438-0.119
				l-0.169-0.42c-0.039-0.098-0.06-0.199-0.06-0.301c0-0.443,0.362-0.805,0.807-0.805c0.445,0,0.807,0.361,0.807,0.805
				c0,0.102-0.021,0.203-0.06,0.301l-0.169,0.42l0.438,0.119C19.11,22.709,19.356,23.027,19.356,23.387z M20.969,20.564
				c-0.25,0-0.43-0.113-0.536-0.209l-0.27-0.244l-0.271,0.244c-0.106,0.096-0.286,0.209-0.536,0.209
				c-0.444,0-0.807-0.361-0.807-0.807c0-0.359,0.245-0.678,0.598-0.773l0.438-0.119l-0.17-0.42c-0.038-0.1-0.059-0.199-0.059-0.301
				c0-0.443,0.361-0.805,0.807-0.805c0.444,0,0.806,0.361,0.806,0.805c0,0.102-0.02,0.201-0.059,0.301l-0.17,0.42l0.438,0.119
				c0.353,0.096,0.598,0.414,0.598,0.773C21.775,20.203,21.414,20.564,20.969,20.564z M23.389,24.193
				c-0.251,0-0.43-0.113-0.537-0.209l-0.27-0.244l-0.27,0.244c-0.107,0.096-0.286,0.209-0.537,0.209
				c-0.444,0-0.807-0.361-0.807-0.807c0-0.359,0.246-0.678,0.598-0.773l0.438-0.119l-0.17-0.42c-0.039-0.098-0.06-0.199-0.06-0.301
				c0-0.443,0.361-0.805,0.807-0.805s0.807,0.361,0.807,0.805c0,0.102-0.021,0.203-0.06,0.301l-0.17,0.42l0.438,0.119
				c0.352,0.096,0.598,0.414,0.598,0.773C24.195,23.832,23.833,24.193,23.389,24.193z"/>
		</g>
	</g>
	<g>
		<g>
			<rect x="5.244" y="14.92" fill="#F9BA00" width="6.452" height="0.807"/>
		</g>
	</g>
	<g>
		<g>
			<rect x="10.889" y="17.34" fill="#F9BA00" width="0.807" height="0.805"/>
		</g>
	</g>
	<g>
		<g>
			<rect x="5.244" y="17.34" fill="#F9BA00" width="4.839" height="0.805"/>
		</g>
	</g>
	<g>
		<g>
			<rect x="5.647" y="2.419" fill="#A9A9B1" width="0.807" height="0.807"/>
		</g>
	</g>
	<g>
		<g>
			<rect x="10.486" y="2.419" fill="#A9A9B1" width="0.807" height="0.807"/>
		</g>
	</g>
	<g>
		<g>
			<rect x="12.905" y="6.048" fill="#A9A9B1" width="0.806" height="0.807"/>
		</g>
	</g>
	<g>
		<g>
			<rect x="8.067" y="6.048" fill="#A9A9B1" width="0.806" height="0.807"/>
		</g>
	</g>
	<g>
		<g>
			<rect x="3.228" y="6.048" fill="#A9A9B1" width="0.807" height="0.807"/>
		</g>
	</g>
	<g>
		<g>
			<rect x="17.34" y="15.322" fill="#A9A9B1" width="0.807" height="0.807"/>
		</g>
	</g>
	<g>
		<g>
			<rect x="14.921" y="18.951" fill="#A9A9B1" width="0.806" height="0.807"/>
		</g>
	</g>
	<g>
		<g>
			<rect x="19.76" y="18.951" fill="#A9A9B1" width="0.806" height="0.807"/>
		</g>
	</g>
	<g>
		<g>
			<rect x="17.34" y="22.58" fill="#A9A9B1" width="0.807" height="0.807"/>
		</g>
	</g>
	<g>
		<g>
			<rect x="22.179" y="22.58" fill="#A9A9B1" width="0.807" height="0.807"/>
		</g>
	</g>
</g>
</svg>
