<?xml version="1.0" encoding="utf-8"?>
<!-- Generator: Adobe Illustrator 13.0.0, SVG Export Plug-In . SVG Version: 6.00 Build 14948)  -->
<!DOCTYPE svg PUBLIC "-//W3C//DTD SVG 1.1//EN" "http://www.w3.org/Graphics/SVG/1.1/DTD/svg11.dtd">
<svg version="1.1" id="Layer_1" xmlns="http://www.w3.org/2000/svg" xmlns:xlink="http://www.w3.org/1999/xlink" x="0px" y="0px"
	 width="25px" height="25px" viewBox="0 0 25 25" enable-background="new 0 0 25 25" xml:space="preserve">
<g>
	<g>
		<g>
			<path fill="#F9BA00" d="M12.917,14.272c-1.47,0-2.497,1.043-2.497,2.543v0.422c0,2.059,1.146,3.379,2.913,3.379
				c1.775,0,2.922-1.32,2.922-3.379v-0.422c0-1.5-1.027-2.543-2.506-2.543H12.917z M15.423,16.815v0.422
				c0,0.756-0.21,2.535-2.09,2.535c-1.879,0-2.08-1.779-2.08-2.535v-0.422c0-1.031,0.656-1.699,1.664-1.699h0.832
				C14.766,15.116,15.423,15.784,15.423,16.815z"/>
			<path fill="#F9BA00" d="M12.509,16.815h-0.003c-0.227,0-0.414,0.186-0.414,0.422c0,0.23,0.19,0.424,0.417,0.424
				c0.235,0,0.425-0.193,0.425-0.424C12.934,17.001,12.745,16.815,12.509,16.815z"/>
			<path fill="#A9A9B1" d="M14.552,11.315c0.236,0.01,0.434-0.162,0.445-0.391l0.415-5.498c0.095-0.999,1.431-2.145,2.507-2.145
				h0.832c1.097,0,2.434,1.142,2.497,2.141l0.425,5.502c0.011,0.221,0.198,0.393,0.406,0.393c0.016,0,0.022-0.002,0.039-0.002
				c0.226-0.021,0.396-0.222,0.386-0.461l-0.425-5.489c-0.106-1.555-1.955-2.938-3.328-2.938h-0.832
				c-1.516,0-3.198,1.479-3.337,2.936l-0.416,5.491C14.155,11.093,14.326,11.293,14.552,11.315z"/>
			<path fill="#A9A9B1" d="M18.313,5.264C18.259,5.09,18.096,4.97,17.919,4.97c-0.186,0-0.34,0.12-0.395,0.294
				c-0.313,0.949-1.237,0.975-1.27,0.975c-0.236,0-0.426,0.192-0.426,0.421v1.691c0,1.413,0.961,3.387,2.506,3.387
				s2.497-1.974,2.497-3.387V6.66c0-0.229-0.182-0.421-0.417-0.421C20.403,6.239,18.627,6.211,18.313,5.264z M19.999,8.351
				c0,1.155-0.739,2.542-1.664,2.542S16.67,9.506,16.67,8.351V7.032c0.402-0.095,0.909-0.326,1.277-0.812
				c0.585,0.593,1.515,0.783,2.052,0.836V8.351L19.999,8.351z"/>
			<path fill="#A9A9B1" d="M8.333,5.815h0.415c0.235,0,0.426-0.192,0.426-0.421c0-0.24-0.19-0.424-0.426-0.424H8.333
				c-0.228,0-0.417,0.184-0.417,0.424C7.916,5.623,8.105,5.815,8.333,5.815z"/>
			<path fill="#F9BA00" d="M14.182,17.661c0.227,0,0.417-0.193,0.417-0.424c0-0.236-0.19-0.422-0.417-0.422H14.18
				c-0.235,0-0.415,0.186-0.415,0.422C13.765,17.468,13.947,17.661,14.182,17.661z"/>
			<path fill="#A9A9B1" d="M4.181,6.559c0.086,0.813,0.433,1.53,0.451,1.562c0.374,0.768,0.941,1.929,2.867,1.929
				s2.493-1.161,2.876-1.929c0.019-0.031,0.365-0.748,0.443-1.562c0.261-0.147,0.435-0.424,0.435-0.744V4.97
				c0-0.315-0.169-0.589-0.416-0.735V4.125c0-1.404-1.123-2.542-2.505-2.542H6.667c-1.374,0-2.497,1.138-2.497,2.542v0.109
				C3.916,4.381,3.755,4.655,3.755,4.97v0.845C3.755,6.135,3.928,6.412,4.181,6.559z M4.587,4.97c0.226,0,0.416-0.192,0.416-0.421
				V4.125c0-0.936,0.741-1.698,1.664-1.698h1.665c0.922,0,1.673,0.763,1.673,1.698v0.424c0,0.229,0.181,0.421,0.415,0.421v0.845
				c-0.234,0-0.415,0.194-0.415,0.424c0,0.735-0.377,1.493-0.38,1.506C9.199,8.62,8.813,9.205,7.5,9.205
				c-1.305,0-1.69-0.585-2.126-1.46c-0.003-0.013-0.37-0.771-0.37-1.506c0-0.229-0.19-0.424-0.416-0.424V4.97L4.587,4.97z"/>
			<path fill="#F9BA00" d="M14.582,21.04c-0.08,0-0.158,0.025-0.228,0.072l-1.021,0.689l-1.021-0.689
				c-0.061-0.047-0.147-0.072-0.227-0.072c-2.413,0-2.912,1.154-2.912,2.119c0,0.232,0.181,0.424,0.406,0.424
				c0.235,0,0.426-0.191,0.426-0.424c0-0.34,0-1.232,1.957-1.275l1.143,0.781c0.134,0.098,0.321,0.098,0.464,0l1.136-0.781
				c1.965,0.043,1.965,0.936,1.965,1.275c0,0.232,0.181,0.424,0.417,0.424c0.226,0,0.416-0.191,0.416-0.424
				C17.503,22.194,16.994,21.04,14.582,21.04z"/>
			<path fill="#A9A9B1" d="M22.114,15.962L22.114,15.962c-0.235,0-0.416,0.191-0.426,0.42l-0.016,6.777
				c-0.01,0.23,0.179,0.424,0.406,0.424l0,0c0.235,0,0.425-0.191,0.426-0.422l0.024-6.768C22.53,16.155,22.342,15.972,22.114,15.962
				z"/>
			<path fill="#A9A9B1" d="M6.251,5.815h0.416c0.227,0,0.416-0.192,0.416-0.421c0-0.24-0.189-0.424-0.416-0.424H6.251
				c-0.227,0-0.416,0.184-0.416,0.424C5.835,5.623,6.025,5.815,6.251,5.815z"/>
			<path fill="#A9A9B1" d="M9.575,13.507l0.347-1.763c2.11,0.05,3.624,0.585,4.088,1.452c0.104,0.203,0.354,0.278,0.563,0.162
				c0.2-0.107,0.273-0.371,0.168-0.573c-0.655-1.219-2.48-1.888-5.126-1.888c-0.212-0.002-0.393,0.13-0.438,0.341l-0.415,2.11
				c-0.047,0.226,0.1,0.45,0.323,0.497c0.026,0.004,0.053,0.006,0.088,0.006C9.359,13.851,9.541,13.716,9.575,13.507z"/>
			<path fill="#A9A9B1" d="M23.978,13.006c-0.813-0.824-2.046-1.264-3.546-1.264c-0.242,0.002-0.432,0.18-0.433,0.422
				c0,0.091-0.027,2.109-1.664,2.109s-1.664-2.018-1.665-2.109c0-0.229-0.189-0.422-0.415-0.422c-0.236,0-0.426,0.192-0.426,0.422
				c0,0.946,0.456,2.673,2.09,2.921v2.152c0,0.23,0.189,0.424,0.416,0.424s0.416-0.193,0.416-0.424v-2.152
				c1.41-0.219,1.933-1.527,2.054-2.484c1.103,0.06,1.996,0.405,2.585,1.001c0.506,0.512,0.779,1.193,0.779,1.938v6.766
				c0,0.24,0.189,0.434,0.416,0.434s0.416-0.193,0.416-0.434V15.54C25.001,14.571,24.637,13.673,23.978,13.006z"/>
			<path fill="#A9A9B1" d="M7.5,10.893c-0.461,0-0.832,0.376-0.832,0.845c0,0.308,0.17,0.578,0.416,0.725v3.078
				c0,0.238,0.189,0.422,0.416,0.422c0.235,0,0.416-0.184,0.416-0.422v-3.078c0.246-0.146,0.417-0.417,0.417-0.725
				C8.333,11.269,7.96,10.893,7.5,10.893z"/>
			<path fill="#A9A9B1" d="M2.923,15.962c-0.236,0-0.426,0.193-0.426,0.432v6.766c0,0.232,0.189,0.424,0.426,0.424
				c0.226,0,0.406-0.191,0.406-0.424v-6.766C3.33,16.155,3.149,15.962,2.923,15.962z"/>
			<path fill="#A9A9B1" d="M5.83,11.227c-0.044-0.202-0.24-0.33-0.437-0.33c-2.192,0-3.87,0.473-4.716,1.339
				c-0.452,0.45-0.676,0.995-0.676,1.615v8.455c0,0.24,0.189,0.434,0.416,0.434s0.416-0.193,0.416-0.434v-8.455
				c0-0.395,0.143-0.724,0.432-1.016c0.645-0.654,2.028-1.047,3.814-1.091l2.01,9.808c0.047,0.229,0.277,0.375,0.5,0.326
				c0.223-0.047,0.369-0.271,0.32-0.498L5.83,11.227z"/>
		</g>
	</g>
</g>
</svg>
