<?xml version="1.0" encoding="utf-8"?>
<!-- Generator: Adobe Illustrator 13.0.0, SVG Export Plug-In . SVG Version: 6.00 Build 14948)  -->
<!DOCTYPE svg PUBLIC "-//W3C//DTD SVG 1.1//EN" "http://www.w3.org/Graphics/SVG/1.1/DTD/svg11.dtd">
<svg version="1.1" id="Layer_1" xmlns="http://www.w3.org/2000/svg" xmlns:xlink="http://www.w3.org/1999/xlink" x="0px" y="0px"
	 width="25px" height="25px" viewBox="0 0 25 25" enable-background="new 0 0 25 25" xml:space="preserve">
<g>
	<g>
		<g>
			<path fill="#A9A9B1" d="M17.072,21.736c-0.03-0.746-0.179-2.568-0.889-3.629c-0.126-0.193-0.389-0.244-0.581-0.117
				c-0.192,0.125-0.243,0.387-0.117,0.57c0.561,0.848,0.708,2.381,0.751,3.113c-0.222,0.004-0.407,0.182-0.407,0.404
				c0,0.236,0.19,0.426,0.426,0.426h0.415c0.226,0,0.403,0.176,0.415,0.4c0,0.016,0.001,0.023,0.002,0.039v1.225h-1.664V22.92
				c0-0.018-0.011-0.037-0.011-0.047c-0.013-0.514-0.352-0.951-0.813-1.123c0.026-0.467,0.118-1.387,0.391-2.484
				c0.054-0.221-0.077-0.445-0.299-0.508c-0.23-0.053-0.455,0.086-0.509,0.309c-0.287,1.145-0.384,2.082-0.413,2.605h-0.436
				c-0.146,0-0.288,0.027-0.416,0.076v-1.75c0-0.227-0.19-0.416-0.416-0.416s-0.416,0.189-0.416,0.416v1.75
				c-0.128-0.049-0.27-0.076-0.416-0.076h-0.436c-0.029-0.523-0.126-1.461-0.413-2.605c-0.054-0.223-0.278-0.361-0.509-0.309
				c-0.222,0.063-0.353,0.287-0.299,0.508c0.271,1.098,0.363,2.018,0.391,2.484c-0.462,0.172-0.802,0.609-0.813,1.123
				c-0.001,0.01-0.011,0.029-0.011,0.047v1.248H7.916v-1.225c0.001-0.016,0.002-0.023,0.002-0.039c0.012-0.225,0.189-0.4,0.415-0.4
				h0.415c0.235,0,0.426-0.189,0.426-0.426c0-0.223-0.186-0.4-0.407-0.404c0.043-0.732,0.189-2.266,0.751-3.113
				c0.126-0.184,0.075-0.445-0.117-0.57c-0.192-0.127-0.455-0.076-0.581,0.117c-0.71,1.061-0.858,2.883-0.889,3.629
				c-0.478,0.17-0.824,0.609-0.845,1.137c-0.002,0.02-0.002,0.029-0.002,0.047v1.664C7.083,24.811,7.273,25,7.5,25h2.506h2.496
				h2.496h2.506c0.227,0,0.416-0.189,0.416-0.416V22.92c0-0.018-0.001-0.027-0.002-0.047C17.896,22.346,17.549,21.906,17.072,21.736
				z M12.085,23.336v0.832H10.42v-1.225c0.001-0.016,0.002-0.023,0.002-0.039c0.004-0.225,0.181-0.4,0.415-0.4h0.832
				c0.225,0,0.411,0.176,0.415,0.4c0,0.016,0,0.023,0.001,0.039V23.336L12.085,23.336z M14.582,24.168h-1.665v-0.832v-0.393
				c0.001-0.016,0.001-0.023,0.001-0.039c0.004-0.225,0.19-0.4,0.415-0.4h0.832c0.234,0,0.411,0.176,0.415,0.4
				c0,0.016,0,0.023,0.002,0.039V24.168L14.582,24.168z"/>
			<path fill="#A9A9B1" d="M13.749,16.67c0.235,0,0.416-0.189,0.416-0.416v-0.426c0-0.225-0.181-0.406-0.416-0.406
				c-0.227,0-0.416,0.182-0.416,0.406v0.426C13.333,16.48,13.522,16.67,13.749,16.67z"/>
			<path fill="#F9BA00" d="M5.003,1.248c0,0.235,0.181,0.416,0.416,0.416c0.226,0,0.416-0.181,0.416-0.416
				c0.227,0,0.416-0.181,0.416-0.416c0-0.227-0.189-0.416-0.416-0.416C5.835,0.189,5.645,0,5.419,0C5.184,0,5.003,0.189,5.003,0.416
				c-0.235,0-0.416,0.189-0.416,0.416C4.587,1.067,4.768,1.248,5.003,1.248z"/>
			<path fill="#F9BA00" d="M2.083,5.418H1.666V5.002c0-0.235-0.181-0.416-0.416-0.416c-0.227,0-0.416,0.181-0.416,0.416v0.416H0.417
				c-0.227,0-0.416,0.189-0.416,0.416S0.191,6.25,0.417,6.25h0.416v0.416c0,0.227,0.189,0.416,0.416,0.416
				c0.235,0,0.416-0.189,0.416-0.416V6.25h0.417c0.234,0,0.415-0.189,0.415-0.416S2.317,5.418,2.083,5.418z"/>
			<path fill="#F9BA00" d="M5.003,10.004c0-0.236-0.19-0.426-0.416-0.426c-0.235,0-0.417,0.189-0.417,0.426
				c-0.234,0-0.415,0.181-0.415,0.415c0,0.228,0.181,0.417,0.415,0.417c0,0.226,0.182,0.416,0.417,0.416
				c0.226,0,0.416-0.19,0.416-0.416c0.227,0,0.416-0.189,0.416-0.417C5.419,10.185,5.23,10.004,5.003,10.004z"/>
			<path fill="#F9BA00" d="M10.837,11.039c0-0.344-0.285-0.62-0.629-0.62s-0.629,0.276-0.629,0.62s0.285,0.629,0.629,0.629
				S10.837,11.383,10.837,11.039z"/>
			<path fill="#A9A9B1" d="M19.583,6.666c-1.717,0-2.885,0.422-2.934,0.441c-0.026,0.016-0.049,0.028-0.074,0.048
				c-0.66-0.413-1.553-0.862-2.53-1.123c-0.135-1.39-0.449-3.424-1.147-5.737C12.846,0.121,12.689,0,12.501,0
				s-0.345,0.121-0.396,0.295c-0.698,2.313-1.013,4.348-1.147,5.737C9.97,6.293,9.085,6.744,8.423,7.157
				c-0.025-0.011-0.05-0.033-0.078-0.049C8.296,7.088,7.136,6.666,5.419,6.666c-0.235,0-0.416,0.189-0.416,0.416
				c0,1.418,0.534,2.315,1.667,2.787c0.063,2.412,0.845,3.998,0.875,4.068c0.073,0.146,0.22,0.227,0.37,0.227
				c0.067,0,0.135-0.008,0.189-0.045c0.202-0.102,0.291-0.35,0.189-0.551c-0.014-0.02-0.795-1.61-0.795-3.99
				c0-0.176-0.117-0.331-0.279-0.393C6.349,8.895,5.941,8.417,5.857,7.514c0.735,0.03,1.322,0.146,1.709,0.242
				C7.369,7.904,7.249,8.005,7.228,8.015C7.055,8.173,7.035,8.429,7.184,8.602C7.271,8.697,7.381,8.746,7.5,8.746
				c0.097,0,0.194-0.03,0.271-0.1c0.019-0.009,1.406-1.195,3.111-1.721c-0.045,0.593-0.045,0.943-0.045,0.988
				c0,0.118,0.047,0.22,0.122,0.294c0.004,0.013,0.009,0.014,0.021,0.018c0.03,0.028,0.063,0.055,0.107,0.075
				c0.024,0.006,0.053,0.007,0.078,0.019c0.035,0.004,0.061,0.011,0.087,0.011h0.001h2.496c0.027,0,0.053-0.007,0.088-0.011
				c0.025-0.012,0.054-0.013,0.078-0.019c0.045-0.021,0.076-0.047,0.107-0.075c0.013-0.004,0.017-0.005,0.021-0.018
				c0.075-0.074,0.122-0.176,0.122-0.294c0-0.045-0.001-0.396-0.045-0.988c1.706,0.525,3.093,1.712,3.111,1.721
				c0.077,0.069,0.174,0.1,0.271,0.1c0.119,0,0.229-0.049,0.316-0.145c0.149-0.173,0.129-0.429-0.044-0.587
				c-0.021-0.011-0.141-0.11-0.338-0.27c0.389-0.086,0.977-0.201,1.709-0.231c-0.083,0.903-0.492,1.381-1.363,1.672
				c-0.162,0.062-0.279,0.217-0.279,0.393c0,2.365-0.782,3.971-0.795,3.99c-0.102,0.201-0.012,0.449,0.189,0.551
				c0.065,0.037,0.123,0.045,0.189,0.045c0.15,0,0.297-0.08,0.37-0.227c0.03-0.07,0.812-1.657,0.875-4.068
				c1.133-0.472,1.667-1.369,1.667-2.787C19.999,6.855,19.818,6.666,19.583,6.666z M12.501,2.003
				c0.191,0.775,0.336,1.495,0.444,2.166h-0.888C12.166,3.498,12.31,2.778,12.501,2.003z M11.921,5.002h1.16
				c0.036,0.294,0.076,0.57,0.104,0.832h-1.367C11.845,5.572,11.885,5.296,11.921,5.002z M11.677,7.498
				c0.015-0.203,0.025-0.489,0.062-0.832h1.525c0.036,0.343,0.047,0.629,0.062,0.832H11.677z"/>
			<path fill="#F9BA00" d="M22.92,10.836h-0.415v-0.417c0-0.234-0.19-0.415-0.426-0.415c-0.226,0-0.406,0.181-0.406,0.415v0.417
				h-0.426c-0.226,0-0.415,0.181-0.415,0.416c0,0.227,0.189,0.416,0.415,0.416h0.426v0.416c0,0.227,0.181,0.416,0.406,0.416
				c0.235,0,0.426-0.189,0.426-0.416v-0.416h0.415c0.228,0,0.417-0.189,0.417-0.416C23.337,11.017,23.147,10.836,22.92,10.836z"/>
			<path fill="#F9BA00" d="M24.585,1.664c0-0.227-0.19-0.416-0.416-0.416c-0.235,0-0.416,0.189-0.416,0.416
				c-0.235,0-0.416,0.189-0.416,0.417c0,0.234,0.181,0.415,0.416,0.415c0,0.235,0.181,0.426,0.416,0.426
				c0.226,0,0.416-0.19,0.416-0.426c0.227,0,0.416-0.181,0.416-0.415C25.001,1.854,24.812,1.664,24.585,1.664z"/>
			<path fill="#A9A9B1" d="M8.354,14.869c-0.202,0.615-0.03,1.383,0.479,2.08c0.621,0.873,1.915,1.801,3.669,1.801
				c1.753,0,3.047-0.928,3.667-1.801c0.51-0.697,0.682-1.465,0.479-2.08c-0.027-0.092-0.091-0.166-0.167-0.217
				c-0.053-0.033-1.387-0.904-3.98-0.904c-2.594,0-3.928,0.871-3.98,0.904C8.445,14.703,8.381,14.777,8.354,14.869z M9.112,15.277
				c0.368-0.193,1.508-0.695,3.39-0.695c1.881,0,3.023,0.502,3.389,0.695c0.049,0.34-0.094,0.768-0.391,1.184
				c-0.509,0.705-1.561,1.457-2.999,1.457c-1.438,0-2.49-0.752-2.999-1.457C9.206,16.045,9.063,15.619,9.112,15.277z"/>
			<path fill="#F9BA00" d="M15.423,11.039c0-0.344-0.285-0.62-0.629-0.62s-0.629,0.276-0.629,0.62s0.285,0.629,0.629,0.629
				S15.423,11.383,15.423,11.039z"/>
			<path fill="#A9A9B1" d="M11.253,16.67c0.227,0,0.416-0.189,0.416-0.416v-0.426c0-0.225-0.189-0.406-0.416-0.406
				c-0.235,0-0.416,0.182-0.416,0.406v0.426C10.837,16.48,11.018,16.67,11.253,16.67z"/>
		</g>
	</g>
</g>
</svg>
