<?xml version="1.0" encoding="utf-8"?>
<!-- Generator: Adobe Illustrator 13.0.0, SVG Export Plug-In . SVG Version: 6.00 Build 14948)  -->
<!DOCTYPE svg PUBLIC "-//W3C//DTD SVG 1.1//EN" "http://www.w3.org/Graphics/SVG/1.1/DTD/svg11.dtd">
<svg version="1.1" id="Layer_1" xmlns="http://www.w3.org/2000/svg" xmlns:xlink="http://www.w3.org/1999/xlink" x="0px" y="0px"
	 width="25px" height="25px" viewBox="0 0 25 25" enable-background="new 0 0 25 25" xml:space="preserve">
<g>
	<path fill="#A9A9B1" d="M23.532,6.533c0.003-0.103-0.035-0.201-0.107-0.273c-0.071-0.071-0.17-0.11-0.272-0.106
		c-0.027,0.001-0.213,0.01-0.511,0.047c0.051-0.252,0.089-0.537,0.102-0.881c0.004-0.1-0.033-0.195-0.103-0.268
		c-0.069-0.071-0.164-0.112-0.264-0.112h-1.795l0.259-2.189h1.541c0.199,0,0.361-0.159,0.366-0.358v-0.01
		c0.001-0.014,0.001-0.025,0.001-0.038c0-1.177-0.958-2.135-2.136-2.135H3.105c-1.178,0-2.135,0.958-2.135,2.135
		c0,0.013,0,0.025,0,0.038v0.011C0.975,2.59,1.137,2.75,1.337,2.75h1.54l0.259,2.189H1.341c-0.1,0-0.194,0.041-0.264,0.112
		C1.008,5.124,0.971,5.219,0.975,5.319c0.011,0.301,0.041,0.596,0.09,0.879c-0.29-0.035-0.472-0.044-0.498-0.045
		C0.464,6.149,0.366,6.188,0.293,6.259C0.222,6.332,0.183,6.43,0.186,6.533c0.005,0.138,0.148,3.401,2.32,5.575
		c0.703,0.703,1.539,1.195,2.358,1.394v3.805c0,0.201,0.164,0.365,0.366,0.365s0.366-0.164,0.366-0.365v-3.711
		c0.006,0,0.014,0,0.02,0c0.521,0,0.977-0.148,1.328-0.439c0.079,0.051,0.158,0.098,0.238,0.139c0.38,0.201,0.757,0.303,1.108,0.303
		c0.296,0,0.576-0.072,0.825-0.219c0.013-0.008,0.025-0.016,0.037-0.025c0.724,0.635,1.67,1.021,2.706,1.021
		c1.035,0,1.982-0.387,2.705-1.021c0.012,0.01,0.024,0.018,0.037,0.025h0.001c0.249,0.146,0.528,0.219,0.825,0.219
		c0.351,0,0.728-0.102,1.107-0.303c0.08-0.041,0.159-0.088,0.238-0.139c0.352,0.291,0.807,0.439,1.327,0.439
		c0.007,0,0.014,0,0.021,0v10.869h-1.195v-1.789c0-0.203-0.164-0.367-0.367-0.367c-0.201,0-0.365,0.164-0.365,0.367v1.789h-1.269
		V16.16c0-0.352,0.284-0.635,0.634-0.635s0.635,0.283,0.635,0.635v5.242c0,0.203,0.164,0.365,0.365,0.365
		c0.203,0,0.367-0.162,0.367-0.365V16.16c0-0.756-0.613-1.367-1.367-1.367s-1.366,0.611-1.366,1.367v8.305h-0.966V16.16
		c0-0.756-0.614-1.367-1.367-1.367c-0.754,0-1.367,0.611-1.367,1.367v8.305H9.527V16.16c0-0.756-0.613-1.367-1.367-1.367
		c-0.753,0-1.367,0.611-1.367,1.367v8.305H5.597v-5.838c0-0.201-0.164-0.365-0.366-0.365s-0.366,0.164-0.366,0.365v6.205
		c0,0.201,0.164,0.365,0.366,0.365h1.84c0.028,0.008,0.059,0.012,0.089,0.012h2.001c0.03,0,0.059-0.004,0.087-0.012h1.523
		c0.028,0.008,0.058,0.012,0.088,0.012h2.001c0.03,0,0.06-0.004,0.088-0.012h1.523c0.028,0.008,0.058,0.012,0.087,0.012h2.001
		c0.031,0,0.061-0.004,0.089-0.012h1.84c0.203,0,0.366-0.164,0.366-0.365v-11.33c0.819-0.199,1.655-0.691,2.358-1.394
		C23.384,9.934,23.527,6.67,23.532,6.533z M11.225,16.16c0-0.352,0.284-0.635,0.635-0.635c0.35,0,0.634,0.283,0.634,0.635v8.305
		h-1.269V16.16z M7.525,16.16c0-0.352,0.285-0.635,0.635-0.635s0.635,0.283,0.635,0.635v8.305h-1.27V16.16z M3.105,0.94h17.508
		c0.661,0,1.218,0.461,1.365,1.077H1.741C1.887,1.401,2.444,0.94,3.105,0.94z M3.616,2.75h16.487l-0.258,2.189H3.874L3.616,2.75z
		 M1.732,5.671h1.815h0.001l0,0h18.435c-0.026,0.237-0.068,0.447-0.121,0.658c-0.784,0.162-1.823,0.471-2.825,1.06
		c-0.043-0.512-0.116-0.846-0.124-0.884c-0.023-0.1-0.086-0.186-0.176-0.237c-0.088-0.051-0.194-0.063-0.292-0.031
		C18.369,6.26,16.7,6.798,15.354,8.108c-0.726-1.171-2.02-1.951-3.494-1.951c-1.475,0-2.77,0.78-3.495,1.951
		C7.018,6.798,5.349,6.26,5.273,6.237c-0.098-0.031-0.204-0.02-0.292,0.031C4.892,6.32,4.829,6.405,4.805,6.505
		C4.797,6.543,4.724,6.877,4.681,7.389C3.67,6.796,2.622,6.487,1.835,6.326C1.79,6.114,1.755,5.897,1.732,5.671z M3.025,11.59
		c-1.533-1.535-1.956-3.752-2.068-4.667C1.692,7.016,3.268,7.31,4.652,8.232C4.659,8.885,4.741,9.659,4.99,10.44L3.228,8.676
		c-0.144-0.143-0.375-0.143-0.519,0c-0.143,0.144-0.143,0.375,0,0.519l3.541,3.54C5.453,13.107,4.083,12.647,3.025,11.59z
		 M7.524,12.647c-0.526-0.277-1.02-0.777-1.386-1.406C5.252,9.717,5.35,7.895,5.453,7.087C6.036,7.332,7.145,7.878,8.021,8.8
		C7.847,9.255,7.75,9.75,7.75,10.266c0,0.014,0.001,0.027,0.001,0.041L6.934,8.901C6.832,8.726,6.608,8.667,6.433,8.769
		c-0.175,0.101-0.234,0.325-0.132,0.5l2.088,3.589C8.132,12.883,7.837,12.813,7.524,12.647z M11.86,13.643
		c-1.862,0-3.377-1.515-3.377-3.376c0-1.862,1.515-3.377,3.377-3.377c1.861,0,3.375,1.515,3.375,3.377
		C15.235,12.127,13.721,13.643,11.86,13.643z M16.194,12.647c-0.313,0.166-0.608,0.236-0.865,0.211l2.089-3.589
		c0.102-0.175,0.042-0.399-0.133-0.5c-0.175-0.103-0.399-0.043-0.501,0.132l-0.817,1.406c0-0.014,0.001-0.027,0.001-0.041
		c0-0.516-0.097-1.011-0.271-1.466c0.876-0.923,1.986-1.47,2.569-1.713c0.104,0.806,0.203,2.624-0.687,4.153
		C17.214,11.87,16.721,12.37,16.194,12.647z M17.468,12.735l3.542-3.54c0.142-0.144,0.142-0.375,0-0.519
		c-0.144-0.143-0.376-0.143-0.519,0l-1.763,1.764c0.249-0.781,0.331-1.555,0.338-2.207c1.381-0.92,2.96-1.216,3.696-1.309
		c-0.111,0.914-0.531,3.129-2.069,4.666C19.636,12.647,18.266,13.107,17.468,12.735z"/>
	<path fill="#F9BA00" d="M11.86,8.159c-1.163,0-2.107,0.944-2.107,2.107c0,1.162,0.944,2.107,2.107,2.107
		c1.162,0,2.107-0.945,2.107-2.107C13.967,9.103,13.021,8.159,11.86,8.159z M11.86,11.641c-0.759,0-1.375-0.617-1.375-1.375
		c0-0.759,0.616-1.375,1.375-1.375c0.758,0,1.375,0.616,1.375,1.375C13.234,11.024,12.618,11.641,11.86,11.641z"/>
</g>
</svg>
