<?xml version="1.0" encoding="utf-8"?>
<!-- Generator: Adobe Illustrator 13.0.0, SVG Export Plug-In . SVG Version: 6.00 Build 14948)  -->
<!DOCTYPE svg PUBLIC "-//W3C//DTD SVG 1.1//EN" "http://www.w3.org/Graphics/SVG/1.1/DTD/svg11.dtd">
<svg version="1.1" id="Layer_1" xmlns="http://www.w3.org/2000/svg" xmlns:xlink="http://www.w3.org/1999/xlink" x="0px" y="0px"
	 width="25px" height="25px" viewBox="0 0 25 25" enable-background="new 0 0 25 25" xml:space="preserve">
<g>
	<path fill="#F9BA00" d="M6.854,10.888H7.69c0.163,1.142,0.987,2.016,1.985,2.016c0.999,0,1.827-0.875,1.988-2.016h1.672
		c0.161,1.142,0.989,2.016,1.988,2.016c0.997,0,1.822-0.875,1.985-2.016h0.836v-0.807H6.854V10.888z M15.324,11.291
		c0.221,0,0.401-0.181,0.401-0.403h0.764c-0.135,0.694-0.604,1.209-1.165,1.209c-0.563,0-1.033-0.516-1.168-1.209h0.763
		C14.919,11.11,15.102,11.291,15.324,11.291z M9.676,11.291c0.225,0,0.404-0.181,0.404-0.403h0.766
		c-0.137,0.694-0.607,1.209-1.17,1.209c-0.562,0-1.03-0.516-1.165-1.209h0.764C9.274,11.11,9.454,11.291,9.676,11.291z"/>
	<path fill="#A9A9B1" d="M25,14.92V8.468h-3.226v1.613h-2.016v-1.85l1.209,1.209v-4.2C20.968,2.352,18.616,0,15.726,0H9.274
		C6.382,0,4.032,2.352,4.032,5.241v4.2l1.209-1.209v1.85H1.489L0,11.075v1.238l1.489,0.994h3.752v0.362
		c0,1.297,0.865,2.436,2.092,2.793L7.73,17.91c0.273,0.742,0.844,1.313,1.544,1.613v0.285l-3.69,0.494
		c-1.384,0.184-2.613,1.021-3.292,2.24L0.927,25h23.146l-1.365-2.457c-0.679-1.219-1.908-2.057-3.293-2.244l-3.689-0.49v-0.453
		h-0.031c0.541-0.32,0.977-0.814,1.209-1.426l0.714-1.453c1.252-0.342,2.142-1.492,2.142-2.807v-0.362h2.016v1.613H25z
		 M22.581,9.274h1.613v4.839h-1.613V9.274z M20.912,10.888l-1.153,1.386v-1.386H20.912z M4.839,5.241
		c0-2.445,1.99-4.435,4.436-4.435h6.451c2.445,0,4.436,1.989,4.436,4.435v2.253l-1.209-1.209l-1.613,1.612l-1.613-1.612
		l-1.612,1.612L12.5,6.285l-1.613,1.612L9.274,6.285L7.661,7.897L6.048,6.285L4.839,7.495V5.241z M4.783,10.888L3.439,12.5H2.473
		l1.344-1.613H4.783z M0.806,11.507l0.928-0.619h1.034l-1.232,1.479l-0.729-0.485V11.507z M4.489,12.5l0.752-0.902V12.5H4.489z
		 M2.998,22.934C3.551,21.938,4.56,21.25,5.69,21.1l2.372-0.316v3.412H7.256v-2.42H6.449v2.42H2.296L2.998,22.934z M22.002,22.934
		l0.7,1.262h-4.153v-2.42h-0.807v2.42h-0.807v-3.412L19.31,21.1C20.44,21.25,21.446,21.938,22.002,22.934z M16.131,20.678v3.518
		H8.869v-3.518l0.639-0.086c0.353,0.385,1.284,1.184,2.992,1.184s2.64-0.799,2.992-1.184L16.131,20.678z M14.919,20.021
		c-0.212,0.246-0.941,0.947-2.419,0.947c-1.475,0-2.205-0.697-2.42-0.947v-0.287c0.1,0.012,0.198,0.025,0.3,0.025h3.882
		c0.224,0,0.443-0.035,0.657-0.088V20.021z M16.17,17.594l-0.015,0.037c-0.292,0.791-1.053,1.322-1.894,1.322H10.38
		c-0.842,0-1.604-0.531-1.881-1.287l-0.312-1.133h1.488v0.807h0.806v-0.807h0.809v0.807h0.808v-0.807h0.807v0.807h0.808v-0.807
		h0.807v0.807h0.806v-0.807h1.367L16.17,17.594z M18.952,13.669c0,0.991-0.699,1.85-1.667,2.057h-1.961V14.92h-0.806v0.807h-0.807
		V14.92h-0.808v0.807h-0.807V14.92H11.29v0.807h-0.809V14.92H9.676v0.807H7.715c-0.968-0.207-1.667-1.066-1.667-2.057V7.425
		l1.613,1.612l1.613-1.612l1.612,1.612L12.5,7.425l1.613,1.612l1.612-1.612l1.613,1.612l1.613-1.612V13.669z M20.619,12.5
		l1.155-1.387V12.5H20.619z"/>
</g>
</svg>
