<?xml version="1.0" encoding="utf-8"?>
<!-- Generator: Adobe Illustrator 13.0.0, SVG Export Plug-In . SVG Version: 6.00 Build 14948)  -->
<!DOCTYPE svg PUBLIC "-//W3C//DTD SVG 1.1//EN" "http://www.w3.org/Graphics/SVG/1.1/DTD/svg11.dtd">
<svg version="1.1" id="Layer_1" xmlns="http://www.w3.org/2000/svg" xmlns:xlink="http://www.w3.org/1999/xlink" x="0px" y="0px"
	 width="25px" height="25px" viewBox="0 0 25 25" enable-background="new 0 0 25 25" xml:space="preserve">
<g>
	<path fill="#A9A9B1" d="M4.11,4.6c0.077,0.079,0.183,0.124,0.292,0.122c0.055,0.002,0.11-0.008,0.162-0.029
		c0.1-0.045,0.18-0.125,0.225-0.226C4.81,4.416,4.82,4.359,4.818,4.304c0.002-0.11-0.042-0.216-0.121-0.292
		C4.66,3.972,4.614,3.941,4.564,3.919c-0.077-0.03-0.16-0.04-0.242-0.026C4.297,3.902,4.268,3.91,4.244,3.919
		C4.218,3.927,4.193,3.943,4.172,3.957C4.128,3.99,4.089,4.029,4.056,4.074C4.043,4.094,4.031,4.12,4.018,4.145
		S4.001,4.198,3.994,4.224C3.99,4.251,3.988,4.276,3.989,4.304C3.988,4.359,3.998,4.416,4.018,4.467
		C4.04,4.518,4.071,4.563,4.11,4.6z"/>
	<path fill="#A9A9B1" d="M3.226,4.898c-0.122,0.118-0.158,0.3-0.092,0.455c0.021,0.051,0.052,0.098,0.092,0.136
		c0.078,0.08,0.185,0.125,0.297,0.125C3.577,5.613,3.63,5.601,3.681,5.581C3.732,5.56,3.777,5.528,3.814,5.489
		c0.039-0.04,0.07-0.084,0.092-0.136C3.966,5.197,3.931,5.02,3.814,4.898C3.65,4.742,3.391,4.742,3.226,4.898z"/>
	<path fill="#A9A9B1" d="M2.931,5.785C2.853,5.705,2.748,5.66,2.637,5.66c-0.111,0-0.218,0.045-0.294,0.125
		C2.302,5.823,2.271,5.872,2.251,5.923C2.23,5.974,2.218,6.029,2.218,6.082c0.001,0.112,0.046,0.22,0.125,0.298
		C2.421,6.457,2.526,6.5,2.634,6.501C2.746,6.5,2.851,6.457,2.931,6.38c0.077-0.079,0.121-0.187,0.12-0.298
		c0.001-0.053-0.009-0.108-0.028-0.159C3.001,5.872,2.97,5.825,2.931,5.785z"/>
	<path fill="#A9A9B1" d="M4.402,6.501c0.055,0,0.11-0.012,0.162-0.033C4.614,6.447,4.66,6.417,4.697,6.38
		c0.078-0.079,0.121-0.187,0.121-0.298c0.001-0.053-0.009-0.108-0.029-0.159C4.768,5.872,4.738,5.825,4.697,5.785
		C4.621,5.705,4.514,5.66,4.404,5.66c-0.111,0-0.217,0.045-0.294,0.125c-0.04,0.04-0.071,0.086-0.092,0.138
		C3.997,5.974,3.986,6.029,3.985,6.082C3.986,6.313,4.171,6.5,4.402,6.501z"/>
	<path fill="#A9A9B1" d="M3.814,6.672c-0.166-0.155-0.422-0.155-0.588,0C3.185,6.711,3.154,6.759,3.134,6.812
		C3.113,6.861,3.102,6.916,3.101,6.971c0,0.168,0.101,0.324,0.258,0.388c0.156,0.065,0.336,0.03,0.455-0.092
		c0.078-0.078,0.121-0.186,0.121-0.296c0-0.055-0.01-0.11-0.029-0.159C3.885,6.759,3.854,6.711,3.814,6.672z"/>
	<path fill="#A9A9B1" d="M5.289,3.835c0.055,0,0.108-0.01,0.158-0.029c0.051-0.022,0.096-0.053,0.134-0.092
		c0.04-0.038,0.071-0.083,0.092-0.134c0.021-0.051,0.032-0.104,0.033-0.159c0.001-0.112-0.045-0.22-0.125-0.298
		C5.543,3.083,5.498,3.052,5.447,3.03C5.291,2.97,5.113,3.005,4.994,3.123c-0.08,0.079-0.123,0.187-0.121,0.298
		c0,0.11,0.044,0.216,0.122,0.294C5.073,3.793,5.179,3.835,5.289,3.835z"/>
	<path fill="#A9A9B1" d="M6.014,2.918c0.05,0.02,0.104,0.029,0.158,0.029c0.11,0,0.217-0.043,0.296-0.122
		c0.076-0.08,0.12-0.186,0.121-0.298C6.587,2.42,6.543,2.314,6.468,2.236C6.347,2.118,6.17,2.083,6.014,2.144
		c-0.053,0.02-0.1,0.051-0.138,0.092C5.837,2.275,5.806,2.32,5.785,2.369C5.765,2.42,5.755,2.475,5.755,2.528
		C5.753,2.64,5.797,2.748,5.876,2.826C5.916,2.866,5.962,2.897,6.014,2.918z"/>
	<path fill="#A9A9B1" d="M2.931,2.232C2.81,2.114,2.632,2.081,2.476,2.144C2.372,2.181,2.289,2.265,2.251,2.369
		C2.23,2.42,2.218,2.473,2.218,2.528c0,0.112,0.044,0.218,0.121,0.298C2.38,2.864,2.427,2.893,2.476,2.918
		c0.051,0.02,0.104,0.029,0.158,0.029c0.028,0,0.057-0.002,0.084-0.01c0.025-0.004,0.051-0.012,0.075-0.02
		c0.025-0.014,0.051-0.027,0.075-0.043C2.89,2.862,2.911,2.844,2.931,2.826c0.018-0.02,0.034-0.041,0.049-0.063
		c0.016-0.026,0.03-0.049,0.043-0.077c0.008-0.023,0.016-0.049,0.02-0.075c0.008-0.027,0.01-0.055,0.009-0.084
		C3.052,2.475,3.042,2.42,3.023,2.369C2.998,2.32,2.967,2.273,2.931,2.232z"/>
	<path fill="#A9A9B1" d="M3.814,1.345L3.751,1.294c-0.046-0.029-0.097-0.051-0.15-0.063C3.521,1.213,3.436,1.223,3.36,1.256
		c-0.05,0.02-0.095,0.049-0.134,0.088C3.148,1.423,3.103,1.529,3.101,1.641C3.102,1.668,3.105,1.698,3.11,1.726L3.134,1.8
		c0.012,0.025,0.023,0.051,0.038,0.076c0.017,0.022,0.034,0.042,0.054,0.063C3.265,1.977,3.31,2.006,3.36,2.026
		c0.05,0.023,0.104,0.035,0.158,0.033c0.028,0,0.056-0.002,0.083-0.008c0.054-0.012,0.104-0.033,0.15-0.063
		c0.021-0.016,0.043-0.031,0.063-0.049c0.02-0.02,0.036-0.041,0.05-0.063C3.879,1.851,3.893,1.826,3.906,1.8
		c0.009-0.024,0.016-0.049,0.021-0.075c0.007-0.027,0.01-0.057,0.009-0.084c0-0.055-0.01-0.108-0.029-0.159
		C3.882,1.431,3.852,1.384,3.814,1.345z"/>
	<path fill="#A9A9B1" d="M2.047,3.123c-0.021-0.02-0.04-0.037-0.063-0.053C1.96,3.054,1.935,3.042,1.91,3.03L1.834,3.007
		C1.753,2.989,1.669,2.997,1.593,3.03C1.542,3.052,1.495,3.083,1.456,3.123C1.38,3.201,1.337,3.307,1.335,3.417
		c0,0.027,0.003,0.055,0.008,0.083C1.355,3.554,1.376,3.605,1.406,3.65l0.05,0.063c0.04,0.039,0.087,0.068,0.138,0.092
		c0.051,0.02,0.104,0.029,0.158,0.029c0.027,0.002,0.057-0.002,0.083-0.008S1.885,3.815,1.91,3.806
		C1.935,3.793,1.96,3.78,1.985,3.764c0.022-0.016,0.044-0.031,0.063-0.051s0.034-0.042,0.05-0.063C2.126,3.605,2.148,3.554,2.16,3.5
		c0.005-0.028,0.008-0.055,0.009-0.083c0.001-0.055-0.011-0.11-0.034-0.161C2.115,3.207,2.085,3.162,2.047,3.123z"/>
	<path fill="#A9A9B1" d="M3.814,3.123c-0.02-0.02-0.041-0.037-0.063-0.053c-0.023-0.016-0.047-0.028-0.07-0.04
		c-0.025-0.008-0.055-0.016-0.08-0.023C3.521,2.989,3.436,2.997,3.36,3.03C3.259,3.076,3.179,3.156,3.134,3.256
		C3.113,3.307,3.102,3.362,3.101,3.417C3.102,3.444,3.105,3.472,3.11,3.5c0.009,0.025,0.017,0.055,0.024,0.08
		C3.146,3.604,3.158,3.627,3.172,3.65c0.017,0.021,0.034,0.043,0.054,0.063C3.265,3.752,3.31,3.784,3.36,3.806
		c0.05,0.02,0.104,0.029,0.158,0.029c0.028,0.002,0.056-0.002,0.083-0.008s0.054-0.012,0.08-0.021
		c0.023-0.012,0.048-0.026,0.07-0.042C3.796,3.735,3.835,3.696,3.864,3.65C3.879,3.627,3.893,3.604,3.906,3.58
		C3.915,3.554,3.921,3.527,3.926,3.5c0.007-0.028,0.01-0.055,0.009-0.083c0-0.055-0.01-0.11-0.029-0.161
		C3.884,3.207,3.853,3.162,3.814,3.123z"/>
	<path fill="#A9A9B1" d="M4.018,2.693c0.013,0.023,0.025,0.045,0.038,0.071C4.073,2.785,4.09,2.807,4.11,2.826
		c0.018,0.02,0.039,0.038,0.063,0.049c0.022,0.018,0.046,0.031,0.071,0.043c0.025,0.008,0.052,0.016,0.078,0.02
		c0.026,0.008,0.053,0.01,0.08,0.01c0.11,0,0.217-0.043,0.295-0.122C4.777,2.748,4.82,2.64,4.818,2.528
		C4.82,2.502,4.817,2.475,4.81,2.45C4.805,2.422,4.798,2.395,4.789,2.369C4.766,2.318,4.736,2.273,4.697,2.232
		C4.66,2.194,4.614,2.163,4.564,2.144C4.488,2.11,4.404,2.102,4.322,2.118C4.294,2.124,4.268,2.132,4.244,2.144
		C4.217,2.151,4.193,2.165,4.172,2.181C4.152,2.198,4.126,2.214,4.11,2.232C4.032,2.31,3.989,2.418,3.989,2.528
		C3.988,2.558,3.99,2.585,3.994,2.612C4.001,2.638,4.009,2.667,4.018,2.693z"/>
	<path fill="#A9A9B1" d="M4.994,1.939c0.018,0.02,0.039,0.035,0.063,0.049c0.022,0.016,0.046,0.03,0.07,0.042
		c0.025,0.01,0.053,0.018,0.079,0.021c0.027,0.008,0.056,0.01,0.083,0.008c0.109,0.002,0.215-0.041,0.292-0.12
		C5.622,1.9,5.654,1.853,5.672,1.8c0.021-0.051,0.032-0.104,0.033-0.159C5.705,1.529,5.66,1.423,5.581,1.345
		C5.542,1.306,5.498,1.276,5.447,1.256c-0.075-0.033-0.16-0.043-0.241-0.025C5.152,1.243,5.101,1.265,5.056,1.294
		C5.035,1.312,5.009,1.327,4.994,1.345C4.916,1.423,4.873,1.529,4.873,1.641C4.872,1.696,4.881,1.749,4.902,1.8
		C4.922,1.853,4.953,1.9,4.994,1.939z"/>
	<path fill="#A9A9B1" d="M3.023,4.145C3.011,4.12,2.997,4.096,2.98,4.074C2.967,4.049,2.951,4.029,2.931,4.012
		c-0.021-0.02-0.041-0.04-0.063-0.055C2.843,3.943,2.822,3.931,2.797,3.919C2.772,3.906,2.744,3.902,2.718,3.894
		C2.581,3.87,2.439,3.914,2.339,4.012C2.322,4.027,2.306,4.053,2.289,4.074C2.273,4.094,2.259,4.12,2.251,4.145
		C2.24,4.17,2.231,4.196,2.226,4.224c-0.004,0.027-0.008,0.053-0.008,0.08c0,0.055,0.012,0.112,0.033,0.163
		c0.02,0.051,0.05,0.096,0.088,0.133c0.04,0.039,0.086,0.071,0.137,0.092c0.025,0.01,0.053,0.018,0.08,0.021
		c0.025,0.006,0.052,0.01,0.078,0.008C2.746,4.724,2.853,4.681,2.931,4.6c0.078-0.079,0.121-0.185,0.12-0.296
		c0.001-0.027-0.001-0.053-0.009-0.08C3.039,4.198,3.031,4.17,3.023,4.145z"/>
	<path fill="#A9A9B1" d="M2.139,5.032c-0.013-0.023-0.026-0.049-0.042-0.07c-0.013-0.024-0.029-0.045-0.05-0.063
		C2.008,4.857,1.961,4.826,1.91,4.806C1.753,4.744,1.576,4.781,1.456,4.898c-0.017,0.016-0.033,0.041-0.05,0.063
		C1.376,5.006,1.355,5.057,1.343,5.112C1.338,5.14,1.335,5.167,1.335,5.195c0.002,0.11,0.045,0.214,0.12,0.294
		C1.535,5.567,1.64,5.613,1.751,5.615C1.806,5.613,1.86,5.601,1.91,5.581c0.053-0.02,0.1-0.051,0.138-0.092
		c0.078-0.079,0.122-0.185,0.121-0.294C2.169,5.167,2.167,5.14,2.16,5.112C2.155,5.085,2.148,5.057,2.139,5.032z"/>
	<path fill="#A9A9B1" d="M5.289,5.615c0.055-0.002,0.108-0.014,0.158-0.034c0.101-0.045,0.181-0.125,0.226-0.228
		C5.694,5.305,5.705,5.25,5.706,5.195c0.001-0.112-0.045-0.22-0.125-0.296C5.482,4.8,5.341,4.757,5.206,4.785
		C5.179,4.791,5.152,4.796,5.126,4.806c-0.025,0.012-0.046,0.025-0.07,0.037C5.011,4.877,4.972,4.916,4.939,4.961
		c-0.013,0.025-0.025,0.045-0.037,0.07C4.892,5.057,4.886,5.085,4.88,5.112C4.874,5.14,4.871,5.167,4.873,5.195
		c-0.002,0.11,0.042,0.216,0.121,0.294C5.071,5.569,5.177,5.615,5.289,5.615z"/>
	<path fill="#A9A9B1" d="M5.876,4.6c0.039,0.042,0.086,0.073,0.138,0.092c0.05,0.021,0.104,0.031,0.158,0.029
		c0.11,0,0.217-0.043,0.296-0.122c0.037-0.037,0.067-0.083,0.088-0.133c0.021-0.051,0.032-0.108,0.033-0.163
		c-0.001-0.11-0.045-0.216-0.121-0.292C6.347,3.894,6.17,3.856,6.014,3.919C5.962,3.939,5.916,3.97,5.876,4.012
		C5.798,4.088,5.754,4.194,5.755,4.304C5.754,4.359,5.764,4.416,5.785,4.467C5.806,4.518,5.837,4.563,5.876,4.6z"/>
	<path fill="#A9A9B1" d="M6.897,3.806c0.051,0.02,0.104,0.029,0.159,0.029c0.167,0,0.318-0.102,0.383-0.257
		c0.064-0.155,0.029-0.333-0.088-0.455C7.231,3.005,7.054,2.97,6.897,3.03c-0.052,0.02-0.1,0.051-0.138,0.092
		c-0.161,0.163-0.161,0.428,0,0.591C6.798,3.754,6.845,3.784,6.897,3.806z"/>
	<path fill="#A9A9B1" d="M24.736,24.172l-1.908-0.947c-0.713-0.352-1.162-1.079-1.16-1.877v-0.332c0-1.054-0.563-2.024-1.471-2.547
		l-2.252-1.291c0.174-0.461,0.063-0.98-0.283-1.33l-0.305-0.305c0.389-0.479,0.369-1.169-0.041-1.628l-7.036-7.818l0.604-0.608
		c0.078-0.079,0.122-0.185,0.122-0.296c0-0.11-0.044-0.216-0.122-0.294L9.707,3.713C9.628,3.635,9.523,3.592,9.412,3.592
		c-0.08,0.002-0.158,0.027-0.225,0.074c-0.465-2.252-2.515-3.813-4.8-3.655C2.103,0.167,0.284,1.994,0.127,4.29
		s1.397,4.354,3.64,4.821C3.721,9.178,3.695,9.257,3.693,9.337c0,0.112,0.043,0.218,0.121,0.296l1.179,1.186
		c0.078,0.078,0.185,0.122,0.295,0.122s0.217-0.044,0.295-0.122l0.603-0.608l7.786,7.07c0.453,0.416,1.145,0.434,1.619,0.041
		l0.305,0.306c0.395,0.4,1.01,0.483,1.496,0.2l2.395,1.372c0.646,0.373,1.049,1.065,1.049,1.816v0.332
		c-0.004,1.115,0.629,2.136,1.625,2.626l1.91,0.95c0.057,0.027,0.121,0.041,0.184,0.041c0.195,0.002,0.365-0.132,0.41-0.323
		c0.045-0.19-0.049-0.387-0.225-0.472L24.736,24.172z M2.046,1.938c1.046-1.05,2.608-1.385,3.99-0.855
		c1.381,0.53,2.323,1.827,2.406,3.31l-0.209,0.21c0.141-0.141,0.162-0.363,0.051-0.528c-0.109-0.167-0.32-0.231-0.504-0.155
		C7.73,3.941,7.683,3.972,7.643,4.012c-0.077,0.076-0.12,0.182-0.121,0.292c0.001,0.028,0.004,0.055,0.009,0.084
		c0.004,0.027,0.013,0.053,0.025,0.079c0.008,0.025,0.021,0.049,0.037,0.071C7.608,4.561,7.625,4.581,7.643,4.6
		c0.079,0.079,0.185,0.124,0.296,0.125c0.111,0,0.217-0.047,0.295-0.125L7.352,5.487c0.076-0.079,0.12-0.185,0.12-0.294
		C7.471,5.138,7.46,5.083,7.439,5.03c-0.02-0.049-0.05-0.094-0.088-0.133c-0.12-0.118-0.297-0.153-0.454-0.092
		C6.845,4.826,6.798,4.857,6.759,4.896C6.722,4.936,6.693,4.981,6.672,5.03C6.652,5.083,6.64,5.138,6.639,5.193
		c0.001,0.11,0.044,0.216,0.12,0.294C6.797,5.528,6.845,5.56,6.897,5.579c0.05,0.022,0.104,0.032,0.159,0.034
		c0.11-0.002,0.217-0.047,0.295-0.125L6.476,6.366c0.07-0.079,0.109-0.179,0.112-0.285C6.587,6.027,6.576,5.974,6.554,5.923
		C6.536,5.872,6.505,5.825,6.467,5.785C6.425,5.748,6.379,5.717,6.33,5.693c-0.102-0.043-0.215-0.043-0.316,0
		C5.91,5.736,5.827,5.819,5.784,5.923c-0.038,0.102-0.038,0.216,0,0.318C5.808,6.292,5.839,6.337,5.875,6.38
		c0.039,0.037,0.086,0.069,0.138,0.086C6.063,6.488,6.117,6.5,6.171,6.5c0.104-0.002,0.205-0.041,0.282-0.112L5.58,7.267
		c0.078-0.078,0.123-0.184,0.125-0.296C5.704,6.916,5.692,6.861,5.67,6.812c-0.019-0.053-0.05-0.1-0.091-0.139
		c-0.164-0.159-0.425-0.159-0.588,0C4.952,6.711,4.92,6.759,4.9,6.812C4.88,6.861,4.87,6.916,4.871,6.971
		c0,0.11,0.043,0.218,0.121,0.296c0.038,0.04,0.084,0.069,0.133,0.088c0.052,0.021,0.107,0.034,0.162,0.034
		c0.109,0,0.215-0.043,0.293-0.122L4.697,8.153C4.776,8.075,4.821,7.97,4.822,7.857C4.82,7.746,4.775,7.64,4.697,7.561
		C4.678,7.542,4.658,7.524,4.634,7.51c-0.021-0.016-0.045-0.03-0.07-0.038C4.539,7.461,4.512,7.451,4.485,7.447
		C4.349,7.422,4.209,7.463,4.11,7.561c-0.038,0.04-0.069,0.086-0.092,0.138C3.997,7.75,3.986,7.803,3.985,7.857
		C3.984,8.028,4.085,8.182,4.241,8.246c0.156,0.064,0.336,0.029,0.455-0.091l-0.208,0.21C3.011,8.281,1.72,7.335,1.193,5.946
		C0.666,4.559,1,2.987,2.046,1.938z M5.288,9.93L4.699,9.337l4.713-4.735l0.59,0.593l-0.59,0.59L5.288,9.93z M14.529,16.658
		L6.775,9.617l2.918-2.929l7.006,7.79c0.148,0.165,0.143,0.42-0.014,0.577l-1.584,1.592C14.943,16.801,14.693,16.807,14.529,16.658z
		 M16.482,17.034l-0.293-0.296l0.588-0.591l0.295,0.295c0.162,0.164,0.162,0.43,0,0.592C16.91,17.199,16.646,17.199,16.482,17.034z"
		/>
	<path fill="#F9BA00" d="M24.828,1.637c-0.109-0.079-0.248-0.1-0.375-0.059l-5,1.675c-0.17,0.057-0.285,0.216-0.285,0.396v3.581
		C18.916,7.083,18.629,7.002,18.334,7c-0.92,0-1.666,0.75-1.666,1.674s0.746,1.674,1.666,1.674c0.922,0,1.668-0.75,1.668-1.674
		V3.953l4.166-1.395v3c-0.252-0.151-0.539-0.231-0.834-0.233c-0.92,0-1.666,0.75-1.666,1.676c0,0.925,0.746,1.674,1.666,1.674
		c0.922,0,1.668-0.749,1.668-1.674V1.977C25.002,1.841,24.938,1.716,24.828,1.637z M18.334,9.512c-0.459,0-0.832-0.375-0.832-0.838
		s0.373-0.838,0.832-0.838c0.461,0,0.834,0.375,0.834,0.838S18.795,9.512,18.334,9.512z M23.334,7.836
		c-0.459,0-0.832-0.375-0.832-0.836c0-0.463,0.373-0.838,0.832-0.838c0.461,0,0.834,0.375,0.834,0.838
		C24.168,7.461,23.795,7.836,23.334,7.836z"/>
	<path fill="#F9BA00" d="M8.636,15.389l-5.832,1.674c-0.18,0.051-0.303,0.216-0.303,0.402v4.418c-0.252-0.15-0.54-0.23-0.834-0.232
		c-0.92,0-1.666,0.75-1.666,1.676C0.001,24.251,0.748,25,1.667,25c0.921,0,1.668-0.749,1.668-1.674v-3.87l5-1.427v2.181
		c-0.253-0.151-0.541-0.232-0.834-0.234c-0.92,0-1.666,0.75-1.666,1.675c0,0.927,0.746,1.676,1.666,1.676s1.666-0.749,1.666-1.676
		v-5.859c0-0.132-0.061-0.256-0.165-0.336C8.898,15.377,8.763,15.352,8.636,15.389z M1.667,24.162c-0.459,0-0.832-0.375-0.832-0.836
		c0-0.463,0.373-0.838,0.832-0.838c0.461,0,0.834,0.375,0.834,0.838C2.501,23.787,2.128,24.162,1.667,24.162z M3.335,18.585V17.78
		l5-1.437v0.816L3.335,18.585z M7.501,22.488c-0.46,0-0.834-0.375-0.834-0.838c0-0.462,0.374-0.837,0.834-0.837
		s0.834,0.375,0.834,0.837C8.335,22.113,7.961,22.488,7.501,22.488z"/>
</g>
</svg>
