<?xml version="1.0" encoding="utf-8"?>
<!-- Generator: Adobe Illustrator 13.0.0, SVG Export Plug-In . SVG Version: 6.00 Build 14948)  -->
<!DOCTYPE svg PUBLIC "-//W3C//DTD SVG 1.1//EN" "http://www.w3.org/Graphics/SVG/1.1/DTD/svg11.dtd">
<svg version="1.1" id="Layer_1" xmlns="http://www.w3.org/2000/svg" xmlns:xlink="http://www.w3.org/1999/xlink" x="0px" y="0px"
	 width="25px" height="25px" viewBox="0 0 25 25" enable-background="new 0 0 25 25" xml:space="preserve">
<g>
	<path fill="#F9BA00" d="M15.627,0c-1.301,0.001-2.497,0.66-3.125,1.721C11.547,0.11,9.375-0.474,7.649,0.417
		C6.511,1.003,5.805,2.121,5.805,3.333C5.813,6.348,7.333,9.186,9.912,11l0.715,0.5c0.122,0.084,0.252,0.16,0.385,0.227
		c-0.189,0.221-0.294,0.492-0.296,0.773v1.25c0.001,0.461,0.4,0.834,0.894,0.834h0.446v10.416h0.893V14.583h0.446
		c0.493,0,0.893-0.373,0.894-0.834v-1.25c-0.002-0.281-0.106-0.553-0.296-0.773c0.133-0.066,0.263-0.143,0.385-0.227L15.09,11
		c2.58-1.814,4.1-4.652,4.107-7.667C19.195,1.494,17.598,0.002,15.627,0z M12.948,12.083c0.246,0,0.446,0.188,0.446,0.416v1.25
		h-1.785v-1.25c0-0.229,0.2-0.416,0.446-0.416H12.948z M14.555,10.333l-0.714,0.5c-0.801,0.537-1.878,0.537-2.679,0l-0.714-0.5
		c-2.356-1.657-3.743-4.248-3.751-7c0-1.381,1.2-2.5,2.679-2.5c1.48,0,2.68,1.119,2.68,2.5h0.893
		c-0.002-1.381,1.196-2.501,2.675-2.503c1.479-0.002,2.681,1.116,2.683,2.497c0,0.002,0,0.004,0,0.006
		C18.298,6.085,16.911,8.677,14.555,10.333z"/>
	<path fill="#A9A9B1" d="M3.573,3.333c0.26,0,0.519,0.034,0.767,0.104l0.254-0.799C2.702,2.114,0.71,3.121,0.149,4.886
		C0.051,5.194,0.001,5.512,0.001,5.833c0.007,3.014,1.528,5.851,4.106,7.666l0.716,0.5c0.12,0.084,0.25,0.16,0.383,0.227
		c-0.189,0.219-0.294,0.492-0.295,0.773v1.25c0,0.461,0.4,0.834,0.894,0.834h0.446v7.916h0.893v-7.916h0.447
		c0.492,0,0.892-0.373,0.892-0.834v-1.25c-0.001-0.281-0.104-0.555-0.295-0.773c0.135-0.066,0.263-0.143,0.384-0.227l0.716-0.5
		c0.128-0.09,0.251-0.18,0.372-0.273l-0.566-0.643c-0.111,0.086-0.226,0.17-0.343,0.25l-0.713,0.5c-0.801,0.537-1.88,0.537-2.679,0
		l-0.715-0.5c-2.354-1.656-3.742-4.248-3.75-7C0.896,4.454,2.094,3.335,3.573,3.333z M7.144,14.583c0.247,0,0.447,0.188,0.447,0.416
		v1.25H5.805v-1.25c0-0.229,0.2-0.416,0.446-0.416H7.144z"/>
	<path fill="#A9A9B1" d="M20.358,12.833l-0.715,0.5c-0.799,0.537-1.878,0.537-2.679,0l-0.712-0.498
		c-0.118-0.082-0.232-0.166-0.344-0.252l-0.566,0.643c0.121,0.094,0.245,0.186,0.373,0.275l0.714,0.498
		c0.122,0.084,0.25,0.16,0.385,0.227c-0.19,0.219-0.294,0.492-0.295,0.773v1.25c0,0.461,0.399,0.834,0.892,0.834h0.447v7.916h0.893
		v-7.916h0.446c0.493,0,0.894-0.373,0.894-0.834v-1.25c-0.001-0.281-0.105-0.555-0.295-0.773c0.133-0.066,0.263-0.143,0.383-0.227
		l0.716-0.5c2.578-1.814,4.1-4.652,4.106-7.666c-0.002-1.843-1.604-3.335-3.578-3.333c-0.343,0-0.686,0.047-1.014,0.138l0.254,0.799
		c1.419-0.394,2.912,0.36,3.335,1.685c0.073,0.231,0.11,0.472,0.11,0.712C24.101,8.585,22.712,11.177,20.358,12.833z M18.751,14.583
		c0.246,0,0.446,0.188,0.446,0.416v1.25h-1.786v-1.25c0-0.229,0.2-0.416,0.447-0.416H18.751z"/>
</g>
</svg>
