<?xml version="1.0" encoding="utf-8"?>
<!-- Generator: Adobe Illustrator 13.0.0, SVG Export Plug-In . SVG Version: 6.00 Build 14948)  -->
<!DOCTYPE svg PUBLIC "-//W3C//DTD SVG 1.1//EN" "http://www.w3.org/Graphics/SVG/1.1/DTD/svg11.dtd">
<svg version="1.1" id="Layer_1" xmlns="http://www.w3.org/2000/svg" xmlns:xlink="http://www.w3.org/1999/xlink" x="0px" y="0px"
	 width="25px" height="25px" viewBox="0 0 25 25" enable-background="new 0 0 25 25" xml:space="preserve">
<g>
	<path fill="#A9A9B1" d="M10.081,23.386h4.839c0.665,0,1.207-0.543,1.207-1.208v-4.034c0-0.667-0.542-1.21-1.207-1.21h-4.839
		c-0.666,0-1.211,0.543-1.211,1.21v4.034C8.87,22.843,9.415,23.386,10.081,23.386z M9.677,18.144c0-0.222,0.182-0.404,0.404-0.404
		h4.839c0.222,0,0.401,0.183,0.401,0.404v4.034c0,0.222-0.18,0.402-0.401,0.402h-4.839c-0.222,0-0.404-0.181-0.404-0.402V18.144z"/>
	<path fill="#A9A9B1" d="M10.483,18.547h0.808v0.808h-0.808V18.547z"/>
	<path fill="#A9A9B1" d="M12.098,18.547h0.805v0.808h-0.805V18.547z"/>
	<path fill="#A9A9B1" d="M13.709,18.547h0.807v0.808h-0.807V18.547z"/>
	<path fill="#F9BA00" d="M9.09,12.903h6.822c0.594,0,1.146-0.25,1.515-0.685c0.983-1.163,1.524-2.638,1.524-4.154
		c0-1.779-0.71-3.436-1.995-4.664c-1.285-1.229-2.972-1.867-4.755-1.781C8.906,1.768,6.208,4.467,6.057,7.763
		c-0.074,1.597,0.444,3.156,1.459,4.389C7.909,12.629,8.482,12.903,9.09,12.903L9.09,12.903z M12.236,2.425
		c1.562-0.073,3.038,0.482,4.162,1.558c1.126,1.076,1.746,2.525,1.746,4.081c0,1.327-0.474,2.617-1.332,3.633
		c-0.216,0.254-0.543,0.399-0.9,0.399H9.09c-0.365,0-0.711-0.167-0.951-0.457C7.252,10.56,6.798,9.197,6.861,7.8
		C6.994,4.917,9.354,2.557,12.236,2.425z"/>
	<path fill="#A9A9B1" d="M8.472,7.988c0-0.039,0-0.077,0-0.115c0.01-0.182,0.029-0.365,0.063-0.542L7.741,7.184
		c-0.04,0.214-0.063,0.434-0.073,0.653C7.664,7.892,7.666,7.946,7.666,8l0.002,0.063h0.805V7.988z"/>
	<path fill="#A9A9B1" d="M12.31,4.036c0.063-0.003,0.127-0.004,0.19-0.004V3.226c-0.075,0-0.15,0.002-0.228,0.005
		c-1.892,0.086-3.57,1.292-4.275,3.073L8.746,6.6C9.334,5.114,10.733,4.107,12.31,4.036z"/>
	<path fill="#A9A9B1" d="M24.346,15.209c-0.676-1.226-1.788-2.115-3.134-2.504c-0.046-0.013-0.093-0.023-0.139-0.034
		c-0.299-0.494-0.799-0.849-1.389-0.946c0.139-0.272,0.264-0.552,0.37-0.84h0.911c0.668,0,1.211-0.542,1.211-1.209V5.645
		c0-0.667-0.543-1.209-1.211-1.209H19.69C18.36,1.809,15.641,0,12.5,0C9.36,0,6.64,1.809,5.308,4.435H4.034
		c-0.667,0-1.21,0.542-1.21,1.209v4.032c0,0.667,0.543,1.209,1.21,1.209h0.912c0.107,0.288,0.232,0.567,0.371,0.84
		c-0.591,0.099-1.09,0.453-1.389,0.946c-0.045,0.011-0.093,0.021-0.138,0.034c-1.346,0.389-2.459,1.278-3.135,2.504
		c-0.675,1.226-0.834,2.642-0.445,3.986c0.273,0.947,0.802,1.785,1.529,2.438c-0.08,0.443-0.123,0.893-0.123,1.35V25h21.77v-2.017
		c0-0.457-0.044-0.906-0.123-1.35c0.728-0.653,1.257-1.491,1.53-2.438C25.18,17.851,25.021,16.435,24.346,15.209z M24.11,18.579
		l-0.779-0.226c0.063-0.366,0.067-0.731,0.022-1.086l0.784-0.193C24.213,17.57,24.207,18.078,24.11,18.579L24.11,18.579z
		 M23.943,16.291l-0.78,0.193c-0.125-0.342-0.306-0.663-0.526-0.952l0.58-0.559c0.156,0.195,0.299,0.401,0.422,0.626
		C23.764,15.824,23.862,16.053,23.943,16.291z M22.469,18.524c-0.05,0.174-0.117,0.339-0.196,0.498
		c-0.208-0.343-0.448-0.667-0.71-0.976l0.083-0.168c0.146-0.288,0.167-0.616,0.065-0.924c-0.067-0.2-0.188-0.373-0.341-0.512v-1.018
		C22.346,16.101,22.811,17.335,22.469,18.524L22.469,18.524z M2.729,19.022c-0.082-0.159-0.147-0.324-0.196-0.498
		c-0.343-1.188,0.121-2.423,1.098-3.098v1.017c-0.152,0.139-0.273,0.313-0.341,0.512c-0.101,0.309-0.079,0.636,0.065,0.925
		l0.083,0.168C3.176,18.356,2.937,18.679,2.729,19.022z M4.075,17.517c-0.047-0.096-0.055-0.204-0.021-0.308
		c0.034-0.103,0.107-0.185,0.202-0.232c0.055-0.028,0.119-0.043,0.18-0.043c0.154,0,0.293,0.086,0.361,0.223l2.419,4.84
		c0.047,0.096,0.055,0.207,0.021,0.308c-0.034,0.104-0.107,0.186-0.202,0.233c-0.194,0.097-0.444,0.013-0.541-0.18L4.075,17.517z
		 M6.855,23.386c0.187,0,0.373-0.045,0.539-0.128c0.289-0.145,0.505-0.394,0.608-0.698c0.101-0.307,0.079-0.635-0.065-0.924
		l-2.245-4.491c1.08-0.663,2.308-1.018,3.582-1.018h6.451c1.273,0,2.504,0.354,3.582,1.018l-2.245,4.49
		c-0.145,0.29-0.168,0.618-0.065,0.924c0.104,0.306,0.317,0.555,0.608,0.699c0.164,0.083,0.353,0.128,0.537,0.128h0.002v0.807H6.855
		V23.386L6.855,23.386z M8.064,15.322c-0.222,0-0.402-0.18-0.402-0.402c0-0.224,0.18-0.403,0.402-0.403h8.87
		c0.224,0,0.404,0.18,0.404,0.403c0,0.223-0.181,0.402-0.404,0.402h-1.208H9.274H8.064z M18.505,22.357
		c-0.097,0.193-0.347,0.277-0.541,0.181c-0.095-0.048-0.168-0.131-0.202-0.233c-0.033-0.101-0.027-0.212,0.022-0.308l2.417-4.84
		c0.069-0.137,0.208-0.223,0.363-0.223c0.061,0,0.124,0.015,0.178,0.043c0.098,0.048,0.169,0.13,0.204,0.232
		c0.034,0.104,0.026,0.212-0.023,0.308L18.505,22.357z M22.658,14.392l-0.582,0.56c-0.212-0.178-0.45-0.332-0.706-0.46v-0.782
		c0-0.035-0.01-0.067-0.01-0.103C21.84,13.793,22.276,14.059,22.658,14.392z M19.354,12.5c0.668,0,1.211,0.542,1.211,1.21v2.418
		c-0.317,0-0.61,0.123-0.833,0.334c-0.576-0.356-1.19-0.631-1.833-0.822c0.153-0.201,0.246-0.448,0.246-0.72
		c0-0.313-0.123-0.598-0.319-0.813c0.543-0.479,1.015-1.02,1.405-1.607H19.354z M20.966,5.242c0.223,0,0.404,0.181,0.404,0.403
		v4.032c0,0.223-0.182,0.403-0.404,0.403h-0.659c0.168-0.65,0.258-1.326,0.258-2.016c0-0.994-0.19-1.942-0.521-2.822H20.966z
		 M4.034,10.08c-0.224,0-0.404-0.181-0.404-0.403V5.645c0-0.222,0.18-0.403,0.404-0.403h0.921C4.626,6.122,4.436,7.07,4.436,8.064
		c0,0.69,0.089,1.366,0.257,2.016H4.034z M12.5,0.806c4.002,0,7.258,3.256,7.258,7.258c0,2.216-0.993,4.266-2.727,5.655
		c-0.032-0.003-0.063-0.01-0.098-0.01h-8.87c-0.032,0-0.063,0.007-0.095,0.01C6.235,12.33,5.243,10.28,5.243,8.064
		C5.243,4.062,8.498,0.806,12.5,0.806z M5.646,12.5h0.121c0.393,0.588,0.864,1.129,1.407,1.607c-0.196,0.215-0.319,0.5-0.319,0.813
		c0,0.271,0.093,0.519,0.244,0.72c-0.64,0.191-1.256,0.466-1.833,0.822c-0.22-0.211-0.513-0.334-0.83-0.334v-2.418
		C4.436,13.042,4.979,12.5,5.646,12.5L5.646,12.5z M3.63,13.709v0.782c-0.257,0.127-0.493,0.281-0.706,0.46l-0.583-0.56
		c0.383-0.333,0.818-0.599,1.298-0.785C3.64,13.642,3.63,13.674,3.63,13.709z M1.783,14.973l0.581,0.559
		c-0.224,0.289-0.402,0.61-0.527,0.952l-0.78-0.193c0.081-0.237,0.18-0.467,0.303-0.691C1.484,15.375,1.626,15.168,1.783,14.973z
		 M0.89,18.579c-0.099-0.501-0.103-1.009-0.028-1.506l0.785,0.194c-0.048,0.354-0.042,0.72,0.022,1.086L0.89,18.579z M1.113,19.355
		l0.779-0.227c0.105,0.258,0.242,0.499,0.404,0.725c-0.129,0.284-0.242,0.576-0.335,0.874C1.597,20.325,1.312,19.861,1.113,19.355z
		 M2.421,22.984c0-1.506,0.497-2.958,1.411-4.15l1.941,3.885c0.069,0.138,0.165,0.258,0.275,0.356v1.118H2.421V22.984z
		 M22.579,24.193h-3.628v-1.118c0.108-0.099,0.206-0.219,0.275-0.356l1.941-3.885c0.914,1.192,1.411,2.645,1.411,4.15V24.193z
		 M23.038,20.726c-0.093-0.297-0.206-0.589-0.334-0.874c0.161-0.225,0.298-0.467,0.403-0.724l0.778,0.227
		C23.688,19.861,23.402,20.325,23.038,20.726z"/>
</g>
</svg>
