<?xml version="1.0" encoding="utf-8"?>
<!-- Generator: Adobe Illustrator 13.0.0, SVG Export Plug-In . SVG Version: 6.00 Build 14948)  -->
<!DOCTYPE svg PUBLIC "-//W3C//DTD SVG 1.1//EN" "http://www.w3.org/Graphics/SVG/1.1/DTD/svg11.dtd">
<svg version="1.1" id="Layer_1" xmlns="http://www.w3.org/2000/svg" xmlns:xlink="http://www.w3.org/1999/xlink" x="0px" y="0px"
	 width="25px" height="25px" viewBox="0 0 25 25" enable-background="new 0 0 25 25" xml:space="preserve">
<g>
	<g>
		<g>
			<path fill="#F9BA00" d="M11.815,12.916v7.498c0,0.234,0.2,0.416,0.437,0.416s0.437-0.182,0.437-0.416v-7.498
				c0-0.227-0.2-0.416-0.437-0.416S11.815,12.689,11.815,12.916z"/>
			<path fill="#F9BA00" d="M13.998,7.498c0-0.912-0.779-1.664-1.747-1.664c-0.968,0-1.747,0.752-1.747,1.664
				c0,0.924,0.779,1.666,1.747,1.666C13.219,9.164,13.998,8.422,13.998,7.498z M12.251,8.332c-0.483,0-0.873-0.373-0.873-0.834
				s0.39-0.832,0.873-0.832s0.874,0.371,0.874,0.832S12.735,8.332,12.251,8.332z"/>
			<path fill="#A9A9B1" d="M8.311,19.166c0.247,0,0.438-0.189,0.438-0.416V7.082c0-0.023,0.023-2.222,1.499-4.075
				c0.386,0.141,1.081,0.323,2.004,0.323c0.924,0,1.618-0.184,2.002-0.325c1.463,1.852,1.49,4.054,1.49,4.077V18.75
				c0,0.227,0.2,0.416,0.447,0.416c0.236,0,0.436-0.189,0.436-0.416V7.082c0-0.123-0.025-3.107-2.318-5.294L12.56,0.124
				c-0.174-0.165-0.443-0.165-0.617,0l-1.748,1.664C7.901,3.975,7.875,6.959,7.875,7.082V18.75
				C7.875,18.977,8.075,19.166,8.311,19.166z M12.251,1.006l1.381,1.317c-0.332,0.093-0.809,0.175-1.381,0.175
				c-0.57,0-1.049-0.082-1.383-0.175L12.251,1.006z"/>
			<path fill="#A9A9B1" d="M3.072,21.662c-0.247,0-0.447,0.189-0.447,0.416v0.84c0,0.229,0.2,0.418,0.447,0.418
				c0.236,0,0.436-0.189,0.436-0.418v-0.84C3.507,21.852,3.308,21.662,3.072,21.662z"/>
			<path fill="#A9A9B1" d="M4.818,21.662c-0.246,0-0.436,0.189-0.436,0.416v2.506C4.382,24.811,4.572,25,4.818,25
				c0.236,0,0.437-0.189,0.437-0.416v-2.506C5.254,21.852,5.054,21.662,4.818,21.662z"/>
			<path fill="#A9A9B1" d="M21.431,21.662c-0.236,0-0.436,0.189-0.436,0.416v0.84c0,0.229,0.199,0.418,0.436,0.418
				c0.247,0,0.438-0.189,0.438-0.418v-0.84C21.868,21.852,21.678,21.662,21.431,21.662z"/>
			<path fill="#A9A9B1" d="M20.09,15.557l-0.842-0.396v-3.076c0-0.686-0.588-1.248-1.31-1.248c-0.247,0-0.437,0.182-0.437,0.416
				c0,0.227,0.189,0.416,0.437,0.416c0.236,0,0.437,0.182,0.437,0.416v3.33c0,0.162,0.098,0.307,0.237,0.379l1.093,0.516
				c0.698,0.326,2.163,1.02,2.163,1.609v2.08h-4.804c-0.119,0-0.229,0.045-0.309,0.121c-0.02,0.02-1.68,1.543-4.504,1.543
				c-2.825,0-4.485-1.523-4.504-1.543c-0.081-0.076-0.19-0.121-0.31-0.121H2.625v-2.08c0-0.59,1.475-1.283,2.172-1.609l1.094-0.516
				c0.14-0.072,0.237-0.217,0.237-0.379v-3.33c0-0.234,0.2-0.416,0.437-0.416C6.811,11.668,7,11.479,7,11.252
				c0-0.234-0.189-0.416-0.437-0.416c-0.722,0-1.31,0.563-1.31,1.248v3.076l-0.842,0.396c-1.056,0.502-2.661,1.246-2.661,2.361
				v2.496c0,0.234,0.2,0.416,0.438,0.416h5.085c0.488,0.41,2.231,1.674,4.978,1.674c2.746,0,4.489-1.264,4.977-1.674h5.075
				c0.247,0,0.447-0.182,0.447-0.416v-2.496C22.751,16.803,21.146,16.059,20.09,15.557z"/>
			<path fill="#A9A9B1" d="M6.564,21.662c-0.236,0-0.437,0.189-0.437,0.416v1.674c0,0.227,0.2,0.416,0.437,0.416
				C6.811,24.168,7,23.979,7,23.752v-1.674C7,21.852,6.811,21.662,6.564,21.662z"/>
			<path fill="#A9A9B1" d="M19.685,21.662c-0.236,0-0.437,0.189-0.437,0.416v2.506c0,0.227,0.2,0.416,0.437,0.416
				c0.246,0,0.436-0.189,0.436-0.416v-2.506C20.12,21.852,19.931,21.662,19.685,21.662z"/>
			<path fill="#A9A9B1" d="M17.938,21.662c-0.247,0-0.437,0.189-0.437,0.416v1.674c0,0.227,0.189,0.416,0.437,0.416
				c0.236,0,0.437-0.189,0.437-0.416v-1.674C18.375,21.852,18.175,21.662,17.938,21.662z"/>
		</g>
	</g>
</g>
</svg>
