<?xml version="1.0" encoding="utf-8"?>
<!-- Generator: Adobe Illustrator 13.0.0, SVG Export Plug-In . SVG Version: 6.00 Build 14948)  -->
<!DOCTYPE svg PUBLIC "-//W3C//DTD SVG 1.1//EN" "http://www.w3.org/Graphics/SVG/1.1/DTD/svg11.dtd">
<svg version="1.1" id="Layer_1" xmlns="http://www.w3.org/2000/svg" xmlns:xlink="http://www.w3.org/1999/xlink" x="0px" y="0px"
	 width="25px" height="25px" viewBox="0 0 25 25" enable-background="new 0 0 25 25" xml:space="preserve">
<g>
	<g>
		<g>
			<path fill="#F9BA00" d="M4.267,4.286c-0.058-0.114-0.17-0.19-0.297-0.201L2.647,3.965l-0.873-1
				C1.69,2.87,1.563,2.824,1.437,2.844c-0.126,0.02-0.233,0.103-0.283,0.221l-0.522,1.22l-1.22,0.522
				C-0.706,4.856-0.79,4.963-0.81,5.09C-0.83,5.216-0.783,5.344-0.688,5.428l0.999,0.873l0.119,1.322
				C0.442,7.75,0.519,7.862,0.633,7.92c0.053,0.027,0.11,0.041,0.168,0.041c0.066,0,0.132-0.018,0.19-0.053l1.14-0.681l1.294,0.295
				c0.124,0.028,0.255-0.009,0.345-0.1c0.091-0.09,0.128-0.221,0.1-0.345L3.574,5.784l0.681-1.14
				C4.32,4.535,4.324,4.399,4.267,4.286z M2.817,5.804l0.196,0.863L2.15,6.471C2.058,6.449,1.96,6.465,1.878,6.514L1.117,6.968
				L1.038,6.086C1.029,5.99,0.984,5.902,0.912,5.84L0.246,5.257l0.814-0.348c0.087-0.038,0.157-0.107,0.195-0.195l0.348-0.814
				l0.583,0.667c0.063,0.072,0.151,0.117,0.246,0.125l0.882,0.08L2.86,5.531C2.812,5.613,2.796,5.711,2.817,5.804z"/>
		</g>
	</g>
	<g>
		<g>
			<path fill="#F9BA00" d="M15.044,2.667c-0.039-0.122-0.138-0.214-0.262-0.246l-1.803-0.46l-0.986-1.578
				c-0.068-0.108-0.187-0.174-0.314-0.174c0,0,0,0-0.001,0c-0.127,0-0.245,0.065-0.313,0.173l-0.995,1.573l-1.806,0.45
				C8.44,2.435,8.341,2.527,8.301,2.649C8.261,2.77,8.286,2.903,8.368,3.001l1.188,1.432L9.427,6.29
				C9.418,6.417,9.476,6.54,9.578,6.615c0.104,0.076,0.237,0.093,0.356,0.046l1.729-0.688l1.726,0.696
				c0.045,0.019,0.092,0.027,0.14,0.027c0.076,0,0.153-0.024,0.217-0.07c0.104-0.075,0.161-0.197,0.153-0.325l-0.119-1.857
				l1.195-1.425C15.057,2.922,15.083,2.789,15.044,2.667z M13.114,4.082c-0.062,0.073-0.093,0.167-0.086,0.262l0.091,1.417
				l-1.315-0.532c-0.045-0.018-0.092-0.026-0.139-0.026s-0.094,0.009-0.138,0.026l-1.318,0.524l0.099-1.416
				c0.007-0.095-0.023-0.189-0.085-0.263L9.316,2.982l1.377-0.343c0.093-0.023,0.173-0.081,0.225-0.162l0.758-1.199l0.753,1.204
				c0.05,0.081,0.13,0.139,0.223,0.163l1.375,0.351L13.114,4.082z"/>
		</g>
	</g>
	<g>
		<g>
			<path fill="#F9BA00" d="M24.1,5.93l-0.851-1.019l0.089-1.324c0.009-0.127-0.049-0.25-0.152-0.325
				c-0.103-0.075-0.237-0.092-0.356-0.044L21.598,3.71l-1.232-0.494c-0.118-0.047-0.253-0.031-0.355,0.044
				c-0.104,0.075-0.161,0.198-0.152,0.325l0.089,1.324L19.096,5.93c-0.082,0.098-0.107,0.231-0.068,0.353
				c0.04,0.121,0.139,0.214,0.263,0.245l1.287,0.325l0.706,1.123c0.068,0.108,0.187,0.174,0.314,0.174s0.246-0.065,0.314-0.174
				l0.706-1.123l1.287-0.325c0.124-0.031,0.223-0.124,0.262-0.245C24.207,6.161,24.182,6.027,24.1,5.93z M22.293,6.169
				C22.2,6.191,22.12,6.25,22.069,6.331L21.598,7.08l-0.472-0.749c-0.051-0.081-0.131-0.14-0.224-0.162l-0.858-0.217l0.567-0.68
				c0.062-0.073,0.092-0.168,0.086-0.263l-0.06-0.883l0.821,0.329c0.089,0.036,0.188,0.036,0.276,0l0.822-0.329l-0.06,0.883
				c-0.006,0.095,0.024,0.19,0.086,0.263l0.567,0.68L22.293,6.169z"/>
		</g>
	</g>
	<g>
		<g>
			<path fill="#A9A9B1" d="M17.836,8.745h-1.124V8.17c0-0.205-0.166-0.371-0.371-0.371H6.668c-0.205,0-0.371,0.166-0.371,0.371
				v0.575H5.173c-1.575,0-2.856,1.281-2.856,2.856s1.281,2.856,2.856,2.856H6.38c0.356,1.967,1.821,3.553,3.723,4.085v2.593
				c0,0.428-0.349,0.776-0.776,0.776c-0.205,0-0.371,0.166-0.371,0.371v0.703H8.384c-0.205,0-0.372,0.166-0.372,0.371v1.313
				c0,0.205,0.167,0.371,0.372,0.371h6.237c0.205,0,0.371-0.166,0.371-0.371v-1.313c0-0.205-0.166-0.371-0.371-0.371h-0.529v-0.703
				c0-0.205-0.166-0.371-0.371-0.371h-0.039c-0.428,0-0.775-0.349-0.775-0.776v-2.593c1.9-0.532,3.366-2.118,3.723-4.085h1.207
				c1.574,0,2.855-1.281,2.855-2.856S19.41,8.745,17.836,8.745z M5.173,13.715L5.173,13.715c-1.165,0-2.113-0.947-2.113-2.113
				c0-1.165,0.948-2.113,2.113-2.113h1.124v4.038c0,0.063,0.001,0.126,0.003,0.188H5.173z M7.039,8.541h8.931v0.677H7.039V8.541z
				 M13.721,23.729h0.528v0.57l0,0H8.755v-0.57h0.571H13.721z M13.349,22.617v0.369H9.697v-0.378
				c0.659-0.166,1.147-0.764,1.147-1.473v-2.369h1.318v2.369C12.163,21.858,12.672,22.466,13.349,22.617z M15.97,13.526
				c0,2.463-2.003,4.466-4.466,4.466c-2.462,0-4.465-2.003-4.465-4.466V9.961h8.931V13.526L15.97,13.526z M17.836,13.715h-1.128
				c0.003-0.063,0.004-0.125,0.004-0.188V9.488h1.124c1.165,0,2.113,0.948,2.113,2.113C19.949,12.768,19.001,13.715,17.836,13.715z"
				/>
		</g>
	</g>
</g>
</svg>
