<?xml version="1.0" encoding="utf-8"?>
<!-- Generator: Adobe Illustrator 13.0.0, SVG Export Plug-In . SVG Version: 6.00 Build 14948)  -->
<!DOCTYPE svg PUBLIC "-//W3C//DTD SVG 1.1//EN" "http://www.w3.org/Graphics/SVG/1.1/DTD/svg11.dtd">
<svg version="1.1" id="Layer_1" xmlns="http://www.w3.org/2000/svg" xmlns:xlink="http://www.w3.org/1999/xlink" x="0px" y="0px"
	 width="25px" height="25px" viewBox="0 0 25 25" enable-background="new 0 0 25 25" xml:space="preserve">
<g>
	<g>
		<g>
			<path fill="#A9A9B1" d="M1.25,20.018h0.217c0.226,0,0.416-0.193,0.416-0.423s-0.19-0.422-0.416-0.422H1.25
				c-0.227,0-0.416-0.193-0.416-0.422v-2.122H1.25c0.235,0,0.416-0.184,0.416-0.423c0-0.229-0.181-0.422-0.416-0.422H0.833v-1.268
				c0-0.229,0.189-0.422,0.416-0.422h7.987l0.773,3.89c0.032,0.2,0.215,0.344,0.399,0.344c0.036,0,0.063-0.002,0.089-0.016
				c0.224-0.037,0.37-0.26,0.323-0.496l-0.732-3.722h6.996c0.227,0,0.417-0.192,0.417-0.423c0-0.229-0.19-0.422-0.417-0.422h-1.411
				l0.534-1.084c0.101-0.205,0.011-0.457-0.19-0.559c-0.201-0.111-0.458-0.022-0.56,0.184l-0.715,1.459h-4.739V9.438
				c0-0.229-0.189-0.422-0.426-0.422c-0.226,0-0.416,0.193-0.416,0.422v3.812H1.25c-0.687,0-1.248,0.57-1.248,1.267v4.234
				C0.001,19.447,0.563,20.018,1.25,20.018z"/>
			<path fill="#A9A9B1" d="M11.668,14.939c-0.235,0-0.416,0.192-0.416,0.422c0,0.239,0.181,0.423,0.416,0.423h0.416
				c0.227,0,0.416-0.184,0.416-0.423c0-0.229-0.189-0.422-0.416-0.422H11.668z"/>
			<path fill="#F9BA00" d="M6.25,23.405H0.417c-0.227,0-0.416,0.184-0.416,0.423c0,0.229,0.189,0.422,0.416,0.422H6.25
				c0.227,0,0.416-0.192,0.416-0.422C6.667,23.589,6.477,23.405,6.25,23.405z"/>
			<path fill="#F9BA00" d="M11.26,3.095c0.235,0,0.416-0.184,0.416-0.423c0-0.229-0.181-0.422-0.416-0.422h-0.003
				c-0.226,0-0.415,0.192-0.415,0.422C10.842,2.911,11.034,3.095,11.26,3.095z"/>
			<path fill="#F9BA00" d="M9.48,3.838c0.113,0,0.219-0.038,0.292-0.126c0.086-0.074,0.123-0.181,0.123-0.295
				c0-0.107-0.037-0.212-0.123-0.3c-0.15-0.153-0.437-0.153-0.587,0c-0.076,0.088-0.122,0.19-0.122,0.3
				c0,0.114,0.046,0.221,0.122,0.295C9.258,3.8,9.374,3.838,9.48,3.838z"/>
			<path fill="#F9BA00" d="M13.015,3.838c0.116,0,0.218-0.038,0.295-0.126c0.077-0.074,0.122-0.181,0.122-0.295
				c0-0.109-0.045-0.212-0.122-0.3c-0.151-0.153-0.438-0.153-0.589,0c-0.073,0.075-0.12,0.19-0.12,0.3
				c0,0.114,0.047,0.221,0.12,0.295C12.797,3.8,12.911,3.838,13.015,3.838z"/>
			<path fill="#F9BA00" d="M10.42,6.482c0.227,0,0.416-0.192,0.416-0.422V5.216c0-0.239,0.181-0.423,0.416-0.423
				c0.227,0,0.416,0.184,0.416,0.423v0.845c0,0.229,0.181,0.422,0.416,0.422c0.227,0,0.416-0.192,0.416-0.422V5.216
				c0-0.697-0.562-1.268-1.248-1.268c-0.696,0-1.248,0.57-1.248,1.268v0.845C10.004,6.29,10.185,6.482,10.42,6.482z"/>
			<path fill="#A9A9B1" d="M19.581,22.552c1.467,0,2.683-1.101,2.883-2.534h1.286c0.441,0,0.81-0.169,1.033-0.466
				c0.202-0.272,0.269-0.624,0.178-0.949l-0.393-2.476c-0.271-1.39-1.396-2.877-3.738-2.877h-1.249
				c-0.559,0-0.871-0.602-0.872-0.612c-0.007-0.024-0.025-0.04-0.035-0.062l-2.49-3.365c-0.771-1.184-1.991-1.884-3.267-1.884H7.915
				c-1.266,0-2.058,0.914-2.42,1.443l-2.08,2.966c-0.139,0.193-0.093,0.452,0.097,0.592c0.182,0.132,0.444,0.085,0.574-0.099
				l2.093-2.97c0.271-0.402,0.856-1.088,1.736-1.088h5.002c1,0,1.956,0.565,2.584,1.528l2.489,3.354
				c0.104,0.2,0.617,1.041,1.591,1.041h1.249c1.785,0,2.494,1.008,2.775,1.689h-0.696c-0.226,0-0.415,0.192-0.415,0.422
				c0,0.239,0.189,0.423,0.415,0.423h0.898l0.343,2.148c0.026,0.106,0.021,0.199-0.027,0.266c-0.066,0.081-0.199,0.13-0.373,0.13
				h-1.286c-0.2-1.435-1.416-2.544-2.883-2.544c-1.609,0-2.921,1.331-2.921,2.966C16.66,21.229,17.972,22.552,19.581,22.552z
				 M19.581,17.483c1.149,0,2.081,0.946,2.081,2.111c0,1.166-0.932,2.112-2.081,2.112c-1.147,0-2.079-0.946-2.079-2.112
				C17.502,18.43,18.434,17.483,19.581,17.483z"/>
			<path fill="#A9A9B1" d="M19.581,20.862c0.688,0,1.249-0.57,1.249-1.268c0-0.696-0.562-1.267-1.249-1.267
				c-0.687,0-1.247,0.57-1.247,1.267C18.334,20.292,18.895,20.862,19.581,20.862z M19.581,19.173c0.227,0,0.417,0.192,0.417,0.422
				s-0.19,0.423-0.417,0.423c-0.235,0-0.415-0.193-0.415-0.423S19.346,19.173,19.581,19.173z"/>
			<path fill="#F9BA00" d="M24.582,23.405h-6.665c-0.235,0-0.415,0.184-0.415,0.423c0,0.229,0.18,0.422,0.415,0.422h6.665
				c0.228,0,0.417-0.192,0.417-0.422C24.999,23.589,24.81,23.405,24.582,23.405z"/>
			<path fill="#F9BA00" d="M16.243,23.405h-0.832c-0.226,0-0.415,0.184-0.415,0.423c0,0.229,0.189,0.422,0.415,0.422h0.832
				c0.236,0,0.417-0.192,0.417-0.422C16.66,23.589,16.479,23.405,16.243,23.405z"/>
			<path fill="#F9BA00" d="M12.917,23.405h-4.17c-0.226,0-0.416,0.184-0.416,0.423c0,0.229,0.19,0.422,0.416,0.422h4.17
				c0.226,0,0.416-0.192,0.416-0.422C13.332,23.589,13.143,23.405,12.917,23.405z"/>
			<path fill="#A9A9B1" d="M15.828,19.595c0-0.229-0.181-0.422-0.416-0.422H8.301c-0.2-1.435-1.416-2.544-2.883-2.544
				c-1.608,0-2.921,1.331-2.921,2.966c0,1.634,1.313,2.957,2.921,2.957c1.467,0,2.683-1.101,2.883-2.534h7.11
				C15.647,20.018,15.828,19.824,15.828,19.595z M5.418,21.707c-1.148,0-2.089-0.946-2.089-2.112c0-1.165,0.94-2.111,2.089-2.111
				s2.08,0.946,2.08,2.111C7.499,20.761,6.567,21.707,5.418,21.707z"/>
			<path fill="#A9A9B1" d="M5.418,18.328c-0.687,0-1.248,0.57-1.248,1.267c0,0.697,0.562,1.268,1.248,1.268s1.248-0.57,1.248-1.268
				C6.667,18.898,6.105,18.328,5.418,18.328z M5.418,20.018c-0.235,0-0.416-0.193-0.416-0.423s0.181-0.422,0.416-0.422
				c0.227,0,0.416,0.192,0.416,0.422S5.645,20.018,5.418,20.018z"/>
		</g>
	</g>
</g>
</svg>
