<?xml version="1.0" encoding="utf-8"?>
<!-- Generator: Adobe Illustrator 13.0.0, SVG Export Plug-In . SVG Version: 6.00 Build 14948)  -->
<!DOCTYPE svg PUBLIC "-//W3C//DTD SVG 1.1//EN" "http://www.w3.org/Graphics/SVG/1.1/DTD/svg11.dtd">
<svg version="1.1" id="Layer_1" xmlns="http://www.w3.org/2000/svg" xmlns:xlink="http://www.w3.org/1999/xlink" x="0px" y="0px"
	 width="25px" height="25px" viewBox="0 0 25 25" enable-background="new 0 0 25 25" xml:space="preserve">
<g>
	<path fill="#A9A9B1" d="M24.874,15.893l-1.532-1.234v-2.764c0-0.08-0.03-0.16-0.083-0.223l-0.843-0.977
		c-0.132-0.143-0.355-0.15-0.499-0.018c-0.006,0.006-0.013,0.012-0.019,0.018l-0.843,0.977c-0.053,0.063-0.083,0.143-0.082,0.223
		v0.859l-0.977-0.787V9.429c0-0.082-0.03-0.161-0.084-0.223l-0.842-0.977c-0.133-0.144-0.355-0.152-0.499-0.02
		c-0.006,0.006-0.013,0.013-0.019,0.02l-0.843,0.977c-0.053,0.062-0.083,0.141-0.083,0.223v0.631l-2.224-1.79L14.93,4.713
		c-0.004-0.035-0.015-0.069-0.029-0.101l-2.089-4.417c-0.081-0.171-0.285-0.243-0.456-0.163c-0.071,0.034-0.128,0.091-0.162,0.163
		l-2.09,4.417c-0.015,0.032-0.025,0.066-0.03,0.101L9.598,8.271l-2.224,1.79V9.429c0-0.082-0.029-0.161-0.083-0.223L6.45,8.229
		C6.317,8.086,6.094,8.077,5.951,8.21c-0.007,0.006-0.013,0.013-0.019,0.02L5.089,9.206C5.036,9.268,5.006,9.347,5.006,9.429v2.538
		L4.03,12.753v-0.859c0-0.08-0.029-0.16-0.082-0.223l-0.844-0.977c-0.132-0.143-0.355-0.15-0.498-0.018
		c-0.007,0.006-0.014,0.012-0.02,0.018l-0.842,0.977c-0.054,0.063-0.083,0.143-0.083,0.223v2.764l-1.532,1.234
		c-0.081,0.064-0.128,0.162-0.128,0.266v3.84c0,0.188,0.153,0.342,0.342,0.342c0.028,0,0.056-0.004,0.082-0.01l8.138-2.021
		l1.51,1.342L6.99,22.02c-0.123,0.094-0.167,0.26-0.108,0.402l0.977,2.367c0.07,0.17,0.262,0.254,0.434,0.191l3.16-1.152h2.103
		l3.357,1.154c0.18,0.055,0.371-0.041,0.436-0.217l0.781-2.367c0.046-0.139-0.001-0.291-0.116-0.379l-3.084-2.369l1.511-1.342
		l8.138,2.02c0.183,0.047,0.368-0.064,0.414-0.248c0.007-0.027,0.01-0.055,0.01-0.084v-3.838
		C25.001,16.055,24.954,15.957,24.874,15.893z M21.657,12.021l0.5-0.58l0.501,0.58v2.088l-1.001-0.807V12.021z M18.312,9.556
		l0.501-0.58l0.501,0.58v1.86l-1.002-0.805V9.556z M12.502,1.141l1.756,3.716l0.109,0.821L14.064,5.3
		c-0.38-0.474-0.956-0.749-1.562-0.748l0,0c-0.608-0.001-1.184,0.274-1.564,0.748l-0.304,0.377l0.109-0.821L12.502,1.141z
		 M14.461,6.881l-0.59-0.338c-0.85-0.483-1.89-0.483-2.74,0l-0.59,0.337l0.929-1.151c0.46-0.57,1.294-0.66,1.863-0.2
		c0.073,0.06,0.141,0.126,0.2,0.2L14.461,6.881z M5.69,9.557l0.5-0.581l0.501,0.581v1.054L5.69,11.417V9.557z M2.345,14.109v-2.088
		l0.501-0.58l0.5,0.58v1.282L2.345,14.109z M0.685,16.322l8.782-7.068l-1.121,8.404l-1.324,0.33l0.654-4.906
		c0.025-0.188-0.106-0.36-0.293-0.383c-0.094-0.014-0.188,0.014-0.26,0.072l-5.041,4.057c-0.081,0.064-0.128,0.162-0.128,0.266
		v2.152l-1.27,0.314V16.322z M2.638,19.076v-1.818l4.247-3.418l-0.576,4.324L2.638,19.076z M13.333,23.145H11.67l-0.643-3.133h2.947
		L13.333,23.145z M7.614,22.402l2.771-2.129l0.352,1.719l0.261,1.273l-2.631,0.961L7.614,22.402z M16.808,24.223l-2.801-0.963
		l0.612-2.986l2.784,2.141L16.808,24.223z M14.264,19.328h-3.525l-1.721-1.529l1.24-9.303l0,0l0.096-0.722l1.117-0.637
		c0.639-0.363,1.422-0.363,2.061,0l1.117,0.637l0.097,0.722l0,0l1.106,8.297l0.134,1.006L14.264,19.328z M18.117,13.84l4.248,3.418
		v1.818l-3.671-0.912L18.117,13.84z M24.318,19.561l-1.27-0.314v-2.152c0-0.104-0.047-0.201-0.128-0.266l-5.041-4.057
		c-0.147-0.119-0.362-0.096-0.48,0.051c-0.059,0.074-0.085,0.168-0.072,0.26l0.653,4.906l-1.324-0.33l-1.121-8.404l8.783,7.068
		V19.561z"/>
	<path fill="#F9BA00" d="M13.781,10.873c-0.023-0.17-0.168-0.297-0.339-0.297h-1.881c-0.172,0-0.316,0.127-0.339,0.297l-0.833,6.245
		c-0.015,0.113,0.027,0.227,0.112,0.301l0.623,0.555c0.063,0.055,0.144,0.086,0.228,0.086h2.299c0.084,0,0.164-0.031,0.228-0.086
		l0.623-0.555c0.085-0.074,0.127-0.188,0.111-0.301L13.781,10.873z M13.521,17.375h-2.041l-0.391-0.348l0.77-5.768h1.283l0.77,5.768
		L13.521,17.375z"/>
</g>
</svg>
