<?xml version="1.0" encoding="utf-8"?>
<!-- Generator: Adobe Illustrator 13.0.0, SVG Export Plug-In . SVG Version: 6.00 Build 14948)  -->
<!DOCTYPE svg PUBLIC "-//W3C//DTD SVG 1.1//EN" "http://www.w3.org/Graphics/SVG/1.1/DTD/svg11.dtd">
<svg version="1.1" id="Layer_1" xmlns="http://www.w3.org/2000/svg" xmlns:xlink="http://www.w3.org/1999/xlink" x="0px" y="0px"
	 width="22.572px" height="22.572px" viewBox="0 0 22.572 22.572" enable-background="new 0 0 22.572 22.572" xml:space="preserve">
<g>
	<g>
		<g>
			<g>
				<path fill="#AFAFC9" d="M22.349,0.058c-0.137-0.078-0.307-0.077-0.443,0.004l-8.078,4.777c-0.209,0.123-0.279,0.395-0.154,0.604
					c0.123,0.21,0.393,0.279,0.604,0.154l5.795-3.426L9.275,13.374l-5.369-1.645l7.008-4.144c0.209-0.123,0.279-0.394,0.156-0.603
					c-0.125-0.21-0.395-0.279-0.605-0.155l-7.867,4.654c-0.15,0.088-0.234,0.256-0.213,0.43c0.02,0.174,0.141,0.318,0.309,0.371
					l6.412,1.961l2.83,5.15c0.002,0.004,0.006,0.01,0.008,0.014c0.049,0.078,0.119,0.143,0.207,0.18
					c0.055,0.023,0.113,0.035,0.172,0.035c0.111,0,0.225-0.043,0.307-0.127l3.254-3.18l6.119,1.873
					c0.043,0.014,0.086,0.02,0.129,0.02c0.094,0,0.186-0.029,0.264-0.086c0.111-0.084,0.178-0.215,0.178-0.355V0.44
					C22.572,0.283,22.486,0.137,22.349,0.058z M11.958,14.514c-0.051,0.074-0.078,0.162-0.078,0.252v2.695l-1.932-3.516l8.549-8.871
					L11.958,14.514z M12.761,18.133v-2.771l2.16,0.66L12.761,18.133z M21.689,17.17l-8.662-2.648l8.662-12.507V17.17z"/>
			</g>
		</g>
		<g>
			<g>
				<path fill="#F9BA00" d="M7.248,15.323c-0.172-0.17-0.451-0.17-0.623,0l-4.115,4.115c-0.172,0.172-0.172,0.451,0,0.625
					c0.086,0.086,0.199,0.129,0.313,0.129s0.225-0.043,0.311-0.129l4.115-4.117C7.421,15.774,7.421,15.495,7.248,15.323z"/>
			</g>
		</g>
		<g>
			<g>
				<path fill="#F9BA00" d="M1.767,20.805c-0.172-0.172-0.451-0.172-0.625,0l-1.014,1.016c-0.172,0.17-0.172,0.449,0,0.621
					c0.086,0.088,0.199,0.129,0.313,0.129s0.225-0.043,0.313-0.129l1.014-1.014C1.939,21.256,1.939,20.977,1.767,20.805z"/>
			</g>
		</g>
		<g>
			<g>
				<path fill="#F9BA00" d="M6.289,21.793c-0.082-0.082-0.195-0.129-0.311-0.129c-0.117,0-0.23,0.047-0.313,0.129
					s-0.129,0.195-0.129,0.313c0,0.115,0.047,0.229,0.129,0.311s0.195,0.131,0.313,0.131c0.115,0,0.229-0.049,0.311-0.131
					s0.129-0.195,0.129-0.311C6.417,21.989,6.371,21.875,6.289,21.793z"/>
			</g>
		</g>
		<g>
			<g>
				<path fill="#F9BA00" d="M9.568,18.512c-0.172-0.172-0.449-0.172-0.623,0l-2.18,2.182c-0.172,0.172-0.172,0.451,0,0.623
					c0.086,0.086,0.199,0.129,0.313,0.129c0.111,0,0.225-0.043,0.311-0.129l2.18-2.18C9.742,18.965,9.742,18.686,9.568,18.512z"/>
			</g>
		</g>
		<g>
			<g>
				<path fill="#F9BA00" d="M17.091,18.346c-0.172-0.174-0.451-0.174-0.623,0l-2.186,2.186c-0.172,0.172-0.172,0.451,0,0.623
					c0.086,0.088,0.199,0.129,0.313,0.129c0.111,0,0.225-0.041,0.311-0.129l2.186-2.186C17.265,18.797,17.265,18.518,17.091,18.346z
					"/>
			</g>
		</g>
		<g>
			<g>
				<path fill="#F9BA00" d="M12.498,6.01c-0.082-0.082-0.195-0.13-0.311-0.13c-0.117,0-0.23,0.048-0.313,0.13
					s-0.129,0.195-0.129,0.312c0,0.117,0.047,0.229,0.129,0.312s0.195,0.129,0.313,0.129c0.115,0,0.229-0.047,0.311-0.129
					s0.129-0.194,0.129-0.312C12.626,6.205,12.58,6.092,12.498,6.01z"/>
			</g>
		</g>
	</g>
</g>
</svg>
