<?xml version="1.0" encoding="utf-8"?>
<!-- Generator: Adobe Illustrator 13.0.0, SVG Export Plug-In . SVG Version: 6.00 Build 14948)  -->
<!DOCTYPE svg PUBLIC "-//W3C//DTD SVG 1.1//EN" "http://www.w3.org/Graphics/SVG/1.1/DTD/svg11.dtd">
<svg version="1.1" id="Layer_1" xmlns="http://www.w3.org/2000/svg" xmlns:xlink="http://www.w3.org/1999/xlink" x="0px" y="0px"
	 width="22.378px" height="21.406px" viewBox="0 0 22.378 21.406" enable-background="new 0 0 22.378 21.406" xml:space="preserve">
<g>
	<path fill="#F9BA00" d="M10.659,1.761c-1.846,0-3.348,1.502-3.348,3.349c0,1.845,1.502,3.346,3.348,3.346
		c1.844,0,3.346-1.501,3.346-3.346C14.005,3.263,12.503,1.761,10.659,1.761z M10.659,2.643c1.008,0,1.877,0.607,2.258,1.478
		c-0.722-0.25-1.479-0.377-2.258-0.377c-0.781,0-1.538,0.127-2.26,0.377C8.78,3.25,9.65,2.643,10.659,2.643z M10.659,7.577
		c-1.347,0-2.445-1.086-2.467-2.427c0.776-0.349,1.604-0.525,2.467-0.525c0.862,0,1.69,0.177,2.465,0.525
		C13.103,6.491,12.005,7.577,10.659,7.577z"/>
	<path fill="#F9BA00" d="M7.312,16.208c0,1.849,1.502,3.349,3.348,3.349c1.845,0,3.347-1.5,3.347-3.349
		c0-1.844-1.502-3.349-3.347-3.349C8.813,12.859,7.312,14.364,7.312,16.208z M10.659,18.674c-1.009,0-1.879-0.607-2.26-1.477
		c0.722,0.25,1.479,0.377,2.26,0.377c0.78,0,1.538-0.127,2.258-0.377C12.537,18.066,11.667,18.674,10.659,18.674z M10.659,13.741
		c1.346,0,2.444,1.086,2.465,2.428c-0.775,0.349-1.604,0.524-2.465,0.524c-0.863,0-1.691-0.178-2.467-0.524
		C8.214,14.827,9.313,13.741,10.659,13.741z"/>
	<path fill="#F9BA00" d="M19.556,10.659c0-1.846-1.502-3.347-3.348-3.347c-1.847,0-3.349,1.501-3.349,3.347
		c0,1.846,1.502,3.348,3.349,3.348C18.054,14.007,19.556,12.504,19.556,10.659z M17.197,8.398c0.869,0.383,1.479,1.252,1.479,2.261
		c0,1.008-0.608,1.877-1.479,2.26c0.25-0.721,0.377-1.479,0.377-2.26C17.574,9.878,17.447,9.122,17.197,8.398z M13.742,10.659
		c0-1.347,1.084-2.444,2.426-2.466c0.35,0.775,0.525,1.603,0.525,2.466c0,0.86-0.177,1.69-0.525,2.467
		C14.826,13.104,13.742,12.006,13.742,10.659z"/>
	<path fill="#F9BA00" d="M1.762,10.659c0,1.846,1.502,3.348,3.347,3.348c1.846,0,3.348-1.502,3.348-3.348
		c0-1.846-1.502-3.347-3.348-3.347C3.264,7.312,1.762,8.813,1.762,10.659z M4.121,12.918c-0.87-0.383-1.479-1.252-1.479-2.26
		c0-1.009,0.609-1.878,1.479-2.261c-0.251,0.724-0.377,1.48-0.377,2.261S3.87,12.198,4.121,12.918z M7.576,10.659
		c0,1.348-1.084,2.444-2.426,2.467c-0.349-0.774-0.525-1.604-0.525-2.467c0-0.863,0.177-1.69,0.525-2.466
		C6.491,8.214,7.576,9.312,7.576,10.659z"/>
	<path fill="#AFAFC9" d="M11.98,10.659c0-0.729-0.593-1.32-1.321-1.32c-0.729,0-1.322,0.591-1.322,1.32
		c0,0.728,0.592,1.321,1.322,1.321C11.387,11.98,11.98,11.387,11.98,10.659z M10.218,10.659c0-0.243,0.198-0.441,0.441-0.441
		c0.242,0,0.44,0.198,0.44,0.441c0,0.242-0.198,0.439-0.44,0.439C10.416,11.098,10.218,10.901,10.218,10.659z"/>
	<path fill="#AFAFC9" d="M21.512,18.637l-0.394,1.312c-0.218,0.704-1.216,0.799-1.523,0.082c-0.366-0.851-1.271-1.322-2.162-1.142
		c0.263-0.217,0.518-0.447,0.762-0.693c4.164-4.161,4.164-10.91,0-15.073C14.849-0.225,9.83-0.88,5.828,1.154
		C5.304,1.42,5.705,2.206,6.228,1.94c3.671-1.867,8.275-1.266,11.346,1.804c3.818,3.819,3.818,10.011,0,13.831
		c-3.818,3.815-10.011,3.815-13.829,0c-3.65-3.653-3.811-9.469-0.484-13.311c0.384-0.444-0.282-1.02-0.667-0.576
		c-3.627,4.188-3.451,10.529,0.527,14.507c2.892,2.892,7.031,3.773,10.685,2.648c0.004-0.002,0.009-0.002,0.014-0.004l3.707-1.068
		c0.51-0.146,1.051,0.111,1.256,0.601c0.266,0.629,0.877,1.035,1.559,1.035c0.755,0,1.406-0.486,1.623-1.207l0.393-1.312
		C22.525,18.329,21.681,18.077,21.512,18.637z"/>
	<circle fill="#AFAFC9" cx="4.361" cy="2.612" r="0.44"/>
</g>
</svg>
