<?xml version="1.0" encoding="utf-8"?>
<!-- Generator: Adobe Illustrator 13.0.0, SVG Export Plug-In . SVG Version: 6.00 Build 14948)  -->
<!DOCTYPE svg PUBLIC "-//W3C//DTD SVG 1.1//EN" "http://www.w3.org/Graphics/SVG/1.1/DTD/svg11.dtd">
<svg version="1.1" id="Layer_1" xmlns="http://www.w3.org/2000/svg" xmlns:xlink="http://www.w3.org/1999/xlink" x="0px" y="0px"
	 width="23px" height="23px" viewBox="0 0 23 23" enable-background="new 0 0 23 23" xml:space="preserve">
<g>
	<g>
		<g>
			<g>
				<path fill="#AFAFC9" d="M13.926,8.536c-0.247,0-0.449,0.201-0.449,0.449c0,0.248,0.202,0.45,0.449,0.45
					c0.248,0,0.449-0.202,0.449-0.45C14.375,8.737,14.174,8.536,13.926,8.536z"/>
			</g>
		</g>
		<g>
			<g>
				<path fill="#AFAFC9" d="M22.475,19.934l-5.998-5.997c0.978-1.471,1.492-3.175,1.492-4.952C17.969,4.03,13.938,0,8.984,0
					C4.03,0,0,4.03,0,8.984c0,4.954,4.03,8.984,8.984,8.984c1.776,0,3.48-0.515,4.952-1.49l1.658,1.656c0,0,0,0,0,0.002l4.337,4.338
					C20.272,22.814,20.723,23,21.203,23s0.931-0.186,1.271-0.525C22.813,22.134,23,21.683,23,21.203S22.813,20.272,22.475,19.934z
					 M13.726,15.53L13.726,15.53c-1.387,1.007-3.026,1.541-4.741,1.541c-4.458,0-8.086-3.628-8.086-8.087
					c0-4.458,3.628-8.087,8.086-8.087c4.459,0,8.087,3.628,8.087,8.087c0,1.715-0.534,3.354-1.541,4.741
					C15.027,14.42,14.42,15.027,13.726,15.53z M14.668,15.939c0.466-0.382,0.89-0.806,1.271-1.271l1.273,1.275
					c-0.388,0.457-0.813,0.882-1.27,1.271L14.668,15.939z M21.839,21.839c-0.17,0.17-0.396,0.264-0.636,0.264
					s-0.466-0.094-0.636-0.264l-3.988-3.989c0.455-0.392,0.88-0.815,1.271-1.27l3.989,3.989c0.17,0.168,0.262,0.394,0.262,0.634
					S22.009,21.669,21.839,21.839z"/>
			</g>
		</g>
		<g>
			<g>
				<path fill="#F9BA00" d="M8.984,1.797c-3.963,0-7.188,3.225-7.188,7.188s3.225,7.188,7.188,7.188s7.188-3.225,7.188-7.188
					S12.947,1.797,8.984,1.797z M8.984,15.272c-3.468,0-6.289-2.82-6.289-6.288c0-3.468,2.821-6.289,6.289-6.289
					c3.468,0,6.289,2.821,6.289,6.289C15.273,12.452,12.452,15.272,8.984,15.272z"/>
			</g>
		</g>
		<g>
			<g>
				<path fill="#AFAFC9" d="M14.019,7.057c-0.387-1.008-1.06-1.87-1.947-2.49c-0.908-0.637-1.976-0.973-3.087-0.973
					c-0.248,0-0.449,0.202-0.449,0.449c0,0.249,0.201,0.45,0.449,0.45c1.847,0,3.532,1.161,4.195,2.886
					c0.069,0.178,0.238,0.287,0.421,0.287c0.053,0,0.107-0.01,0.16-0.03C13.991,7.548,14.107,7.288,14.019,7.057z"/>
			</g>
		</g>
	</g>
</g>
</svg>
