<?xml version="1.0" encoding="utf-8"?>
<!-- Generator: Adobe Illustrator 13.0.0, SVG Export Plug-In . SVG Version: 6.00 Build 14948)  -->
<!DOCTYPE svg PUBLIC "-//W3C//DTD SVG 1.1//EN" "http://www.w3.org/Graphics/SVG/1.1/DTD/svg11.dtd">
<svg version="1.1" id="Layer_1" xmlns="http://www.w3.org/2000/svg" xmlns:xlink="http://www.w3.org/1999/xlink" x="0px" y="0px"
	 width="25px" height="25px" viewBox="0 0 25 25" enable-background="new 0 0 25 25" xml:space="preserve">
<g>
	<g>
		<g>
			<g>
				<path fill="#AFAFC9" d="M24.92,10.526L20.917,4.42c-0.09-0.138-0.244-0.222-0.407-0.222H4.512c-0.166,0-0.317,0.084-0.409,0.221
					l-4.008,6.087c-0.02,0.026-0.036,0.055-0.05,0.085c-0.08,0.174-0.05,0.379,0.076,0.523l2.034,2.322
					c0.178,0.201,0.485,0.222,0.688,0.044c0.204-0.176,0.224-0.485,0.046-0.688l-1.323-1.511h6.567l3.301,11.268l-3.73-4.258
					c-0.178-0.204-0.485-0.224-0.688-0.046s-0.224,0.485-0.046,0.688l5.166,5.898C12.228,24.938,12.362,25,12.501,25
					c0.142,0,0.275-0.062,0.369-0.168l5.499-6.281c0.178-0.202,0.155-0.512-0.046-0.689c-0.204-0.178-0.514-0.157-0.691,0.046
					l-4.061,4.642l3.299-11.268h6.564l-3.036,3.469c-0.177,0.201-0.157,0.511,0.046,0.688c0.095,0.08,0.208,0.12,0.322,0.12
					c0.136,0,0.271-0.057,0.367-0.166l3.744-4.278C25.025,10.95,25.041,10.708,24.92,10.526z M1.396,10.305L4.51,5.577l3.102,4.728
					H1.396z M5.416,5.177h6.182L8.508,9.89L5.416,5.177z M12.501,5.578l3.1,4.727H9.402L12.501,5.578z M12.501,22.725L9.15,11.281
					h6.703L12.501,22.725z M16.505,9.903l-3.1-4.726h6.199L16.505,9.903z M17.41,10.305l3.1-4.727l3.098,4.727H17.41z"/>
			</g>
		</g>
		<g>
			<g>
				<path fill="#F9BA00" d="M7.675,15.968c-1.26,0-2.284-1.024-2.284-2.284c0-0.271-0.22-0.488-0.489-0.488
					s-0.487,0.217-0.487,0.488c0,1.26-1.026,2.284-2.286,2.284c-0.27,0-0.487,0.217-0.487,0.488c0,0.27,0.218,0.487,0.487,0.487
					c1.26,0,2.286,1.024,2.286,2.286c0,0.267,0.218,0.486,0.487,0.486s0.489-0.22,0.489-0.486c0-1.262,1.024-2.286,2.284-2.286
					c0.27,0,0.489-0.218,0.489-0.487C8.164,16.185,7.945,15.968,7.675,15.968z M4.903,17.513c-0.265-0.428-0.628-0.791-1.058-1.057
					c0.429-0.268,0.792-0.629,1.058-1.058c0.267,0.429,0.63,0.79,1.058,1.058C5.533,16.722,5.17,17.085,4.903,17.513z"/>
			</g>
		</g>
		<g>
			<g>
				<path fill="#F9BA00" d="M24.513,1.953c-0.809,0-1.465-0.658-1.465-1.465c0-0.27-0.22-0.488-0.489-0.488S22.07,0.219,22.07,0.488
					c0,0.807-0.656,1.465-1.465,1.465c-0.268,0-0.487,0.219-0.487,0.489c0,0.27,0.22,0.487,0.487,0.487
					c0.809,0,1.465,0.658,1.465,1.465c0,0.27,0.22,0.487,0.489,0.487s0.489-0.218,0.489-0.487c0-0.808,0.656-1.465,1.465-1.465
					C24.781,2.929,25,2.712,25,2.442C25,2.172,24.781,1.953,24.513,1.953z M22.559,2.931c-0.14-0.186-0.306-0.35-0.489-0.489
					c0.184-0.14,0.35-0.306,0.489-0.49c0.14,0.185,0.304,0.351,0.489,0.49C22.863,2.581,22.699,2.746,22.559,2.931z"/>
			</g>
		</g>
		<g>
			<g>
				<path fill="#F9BA00" d="M19.667,16.375c-0.09-0.09-0.216-0.145-0.345-0.145c-0.128,0-0.254,0.055-0.346,0.145
					c-0.09,0.09-0.142,0.217-0.142,0.345s0.052,0.254,0.142,0.346c0.092,0.092,0.218,0.144,0.346,0.144
					c0.129,0,0.255-0.052,0.345-0.144c0.092-0.092,0.144-0.218,0.144-0.346S19.758,16.465,19.667,16.375z"/>
			</g>
		</g>
	</g>
</g>
</svg>
