<?xml version="1.0" encoding="utf-8"?>
<!-- Generator: Adobe Illustrator 13.0.0, SVG Export Plug-In . SVG Version: 6.00 Build 14948)  -->
<!DOCTYPE svg PUBLIC "-//W3C//DTD SVG 1.1//EN" "http://www.w3.org/Graphics/SVG/1.1/DTD/svg11.dtd">
<svg version="1.1" id="Layer_1" xmlns="http://www.w3.org/2000/svg" xmlns:xlink="http://www.w3.org/1999/xlink" x="0px" y="0px"
	 width="4.987px" height="10.001px" viewBox="0 0 4.987 10.001" enable-background="new 0 0 4.987 10.001" xml:space="preserve">
<path fill="#FFFFFF" d="M4.984,5c0-0.05,0.008-0.099-0.002-0.147C4.976,4.82,4.955,4.791,4.944,4.759
	C4.921,4.695,4.9,4.632,4.859,4.575C4.857,4.571,4.857,4.567,4.854,4.563l0.007-0.005L1.564,0.346L1.562,0.348
	C1.556,0.341,1.556,0.333,1.55,0.328C1.275-0.024,0.74-0.106,0.357,0.147C-0.028,0.402-0.115,0.894,0.16,1.246
	c0.005,0.007,0.012,0.009,0.018,0.015L0.174,1.263L3.096,5L0.174,8.736l0.004,0.002C0.172,8.746,0.166,8.748,0.16,8.756
	C-0.115,9.107-0.028,9.6,0.357,9.852c0.383,0.256,0.918,0.174,1.193-0.18c0.006-0.006,0.006-0.014,0.011-0.02l0.003,0.002
	l3.297-4.213L4.854,5.437C4.857,5.433,4.857,5.428,4.86,5.424c0.039-0.055,0.059-0.117,0.081-0.178
	c0.013-0.034,0.034-0.064,0.041-0.099C4.992,5.099,4.984,5.05,4.984,5z"/>
</svg>
