<?xml version="1.0" encoding="utf-8"?>
<!-- Generator: Adobe Illustrator 13.0.0, SVG Export Plug-In . SVG Version: 6.00 Build 14948)  -->
<!DOCTYPE svg PUBLIC "-//W3C//DTD SVG 1.1//EN" "http://www.w3.org/Graphics/SVG/1.1/DTD/svg11.dtd">
<svg version="1.1" id="Layer_1" xmlns="http://www.w3.org/2000/svg" xmlns:xlink="http://www.w3.org/1999/xlink" x="0px" y="0px"
	 width="16px" height="16px" viewBox="0 0 16 16" enable-background="new 0 0 16 16" xml:space="preserve">
<g>
	<g>
		<path fill="#8D8D96" d="M9.763,8l5.981-5.982C15.909,1.853,16,1.632,16,1.398c0-0.234-0.091-0.455-0.256-0.619L15.22,0.254
			C15.057,0.09,14.836,0,14.601,0c-0.232,0-0.453,0.09-0.618,0.254L8.001,6.238L2.018,0.254C1.854,0.09,1.633,0,1.399,0
			C1.166,0,0.945,0.09,0.78,0.254L0.255,0.779c-0.34,0.342-0.34,0.896,0,1.238L6.239,8l-5.984,5.984
			c-0.165,0.164-0.253,0.383-0.253,0.617s0.088,0.454,0.253,0.62l0.524,0.524C0.945,15.91,1.166,16,1.399,16
			c0.233,0,0.455-0.09,0.618-0.254l5.983-5.984l5.981,5.984C14.147,15.91,14.368,16,14.601,16l0,0c0.235,0,0.456-0.09,0.619-0.254
			l0.524-0.524C15.909,15.056,16,14.836,16,14.602s-0.091-0.453-0.256-0.617L9.763,8z"/>
	</g>
</g>
</svg>
