<?xml version="1.0" encoding="utf-8"?>
<!-- Generator: Adobe Illustrator 13.0.0, SVG Export Plug-In . SVG Version: 6.00 Build 14948)  -->
<!DOCTYPE svg PUBLIC "-//W3C//DTD SVG 1.1//EN" "http://www.w3.org/Graphics/SVG/1.1/DTD/svg11.dtd">
<svg version="1.1" id="Layer_1" xmlns="http://www.w3.org/2000/svg" xmlns:xlink="http://www.w3.org/1999/xlink" x="0px" y="0px"
	 width="16px" height="16px" viewBox="0 0 16 16" enable-background="new 0 0 16 16" xml:space="preserve">
<g opacity="0.5">
	<g>
		<path fill="#FFFFFF" d="M15.645,13.904l-3.299-3.297c0.795-1.148,1.193-2.428,1.193-3.837c0-0.916-0.178-1.794-0.533-2.629
			c-0.357-0.836-0.838-1.558-1.443-2.164S10.236,0.89,9.398,0.534C8.563,0.178,7.686,0,6.77,0C5.853,0,4.977,0.178,4.14,0.534
			C3.304,0.89,2.582,1.371,1.977,1.977C1.37,2.583,0.89,3.304,0.533,4.141C0.179,4.977,0,5.854,0,6.77
			C0,7.687,0.179,8.564,0.533,9.4c0.356,0.836,0.837,1.557,1.443,2.162c0.605,0.605,1.328,1.088,2.163,1.443
			c0.837,0.355,1.713,0.533,2.63,0.533c1.41,0,2.689-0.396,3.835-1.191l3.299,3.289C14.135,15.879,14.424,16,14.77,16
			c0.332,0,0.621-0.121,0.865-0.363C15.879,15.393,16,15.104,16,14.77C16,14.432,15.883,14.143,15.645,13.904z M9.813,9.814
			c-0.841,0.842-1.857,1.264-3.042,1.264c-1.186,0-2.2-0.422-3.043-1.264C2.883,8.97,2.461,7.956,2.461,6.77
			c0-1.186,0.422-2.201,1.266-3.042C4.57,2.884,5.584,2.461,6.77,2.461c1.186,0,2.201,0.422,3.042,1.266
			c0.842,0.842,1.264,1.856,1.264,3.042C11.076,7.956,10.654,8.97,9.813,9.814z"/>
	</g>
</g>
</svg>
