<?xml version="1.0" encoding="utf-8"?>
<!-- Generator: Adobe Illustrator 13.0.0, SVG Export Plug-In . SVG Version: 6.00 Build 14948)  -->
<!DOCTYPE svg PUBLIC "-//W3C//DTD SVG 1.1//EN" "http://www.w3.org/Graphics/SVG/1.1/DTD/svg11.dtd">
<svg version="1.1" id="Layer_1" xmlns="http://www.w3.org/2000/svg" xmlns:xlink="http://www.w3.org/1999/xlink" x="0px" y="0px"
	 width="11px" height="11px" viewBox="0 0 11 11" enable-background="new 0 0 11 11" xml:space="preserve">
<g>
	<g>
		<polygon fill="#E87E00" points="5.96,0.376 5.958,0.374 6.918,2.304 		"/>
		<polygon fill="#E87E00" points="5.052,0.376 4.557,1.367 5.052,0.376 		"/>
		<polygon fill="#E87E00" points="2.729,10.914 3.678,10.419 2.729,10.914 		"/>
		<polygon fill="#E87E00" points="8.27,10.917 8.272,10.917 7.32,10.423 		"/>
		<polygon fill="#E87E00" points="0.286,4.748 1.022,5.555 0.286,4.748 		"/>
		<polygon fill="#E87E00" points="0.567,3.83 0.566,3.83 1.609,3.639 		"/>
		<polygon fill="#E87E00" points="6.947,2.364 6.918,2.304 6.947,2.364 		"/>
		<polygon fill="#E87E00" points="2.651,3.446 1.609,3.639 2.65,3.447 		"/>
		<polygon fill="#E87E00" points="6.37,9.926 7.32,10.423 6.373,9.926 		"/>
		<polygon fill="#E87E00" points="3.678,10.419 4.627,9.926 4.627,9.926 		"/>
		<polygon fill="#E87E00" points="4.557,1.367 4.063,2.359 4.063,2.359 		"/>
		<polygon fill="#E87E00" points="1.022,5.555 1.757,6.362 1.756,6.361 		"/>
		<path fill="#E87E00" d="M9.109,9.922L8.572,7.106l0.675-0.738c0.002-0.002,0.002-0.002,0.002-0.002l1.47-1.609
			c0.375-0.408,0.438-1.142-0.201-1.274L8.359,3.451c-0.002,0-0.004-0.001-0.004-0.001L7.401,3.274l-0.454-0.91l0,0l-0.029-0.06
			l-0.96-1.93C5.71-0.125,5.302-0.125,5.052,0.376L4.557,1.367L4.063,2.359l0,0L3.609,3.27L2.651,3.446
			c0,0.001-0.001,0.001-0.001,0.001L1.609,3.639L0.566,3.459c-0.759,0.105-0.65,0.88-0.28,1.288l0.736,0.808l0.734,0.806
			c0,0,0.001,0,0.001,0.001l0.675,0.741L2.058,8.878l-0.188,1.41c-0.076,0.561,0.378,0.874,0.859,0.625l0.948-0.494l0.95-0.493l0,0
			L5.5,9.473l0.87,0.453c0,0,0,0,0.003,0l0.947,0.497l0.952,0.494C8.749,11.167,9.312,10.803,9.109,9.922z"/>
	</g>
	<g>
		<polygon fill="#F7C000" points="5.96,0.34 5.958,0.338 6.918,2.083 		"/>
		<polygon fill="#F7C000" points="5.052,0.34 4.557,1.236 5.052,0.34 		"/>
		<polygon fill="#F7C000" points="2.729,9.86 3.678,9.415 2.729,9.86 		"/>
		<polygon fill="#F7C000" points="8.27,9.866 8.272,9.866 7.32,9.418 		"/>
		<polygon fill="#F7C000" points="0.286,4.291 1.022,5.02 0.286,4.291 		"/>
		<polygon fill="#F7C000" points="0.567,3.459 0.566,3.459 1.609,3.288 		"/>
		<polygon fill="#F7C000" points="6.947,2.135 6.918,2.083 6.947,2.135 		"/>
		<polygon fill="#F7C000" points="2.651,3.113 1.609,3.288 2.65,3.114 		"/>
		<polygon fill="#F7C000" points="6.37,8.969 7.32,9.418 6.373,8.969 		"/>
		<polygon fill="#F7C000" points="3.678,9.415 4.627,8.969 4.627,8.969 		"/>
		<polygon fill="#F7C000" points="4.557,1.236 4.063,2.132 4.063,2.132 		"/>
		<polygon fill="#F7C000" points="1.022,5.02 1.757,5.749 1.756,5.749 		"/>
		<path fill="#F7C000" d="M9.005,9.354L8.572,6.42l0.675-0.667c0.002-0.002,0.002-0.002,0.002-0.002l1.47-1.455
			c0.375-0.368,0.248-0.739-0.278-0.829l-2.081-0.35c-0.002,0-0.004,0-0.004,0L7.401,2.959L6.947,2.135l0,0L6.918,2.083l-0.96-1.745
			C5.71-0.112,5.302-0.112,5.052,0.34L4.557,1.236L4.063,2.132l0,0L3.609,2.955L2.651,3.113c0,0.001-0.001,0.001-0.001,0.001
			L1.609,3.288L0.566,3.459c-0.525,0.089-0.65,0.462-0.28,0.831L1.022,5.02l0.734,0.729h0.001l0.675,0.67L2.145,8.344l-0.15,1.003
			C1.918,9.854,2.249,10.085,2.729,9.86l0.948-0.445l0.95-0.445l0,0L5.5,8.559l0.87,0.41c0,0,0,0,0.003,0L7.32,9.418l0.952,0.447
			C8.749,10.089,9.078,9.86,9.005,9.354z"/>
	</g>
	<path opacity="0.25" fill="#FFFFFF" d="M9.893,3.549c-0.05-0.02-0.092-0.045-0.156-0.057L7.943,3.191
		C7.94,3.191,7.94,3.19,7.938,3.19l-0.82-0.136l-0.39-0.71L6.702,2.298L5.875,0.796c0-0.001,0-0.001,0-0.002
		C5.658,0.407,5.309,0.407,5.094,0.796L4.667,1.568L4.24,2.34L3.849,3.05L3.024,3.188L2.125,3.337L1.227,3.485
		C0.775,3.563,0.666,3.883,0.986,4.201L1.62,4.829l0.633,0.629l0,0l0.101,0.1c0.578,0.044,1.218,0.236,1.884,0.707
		C6.581,7.925,8.28,5.179,9.571,3.833C9.665,3.737,9.773,3.642,9.893,3.549z"/>
</g>
</svg>
